<?xml version="1.0" encoding="utf-8"?>
<!-- Generator: Adobe Illustrator 27.3.1, SVG Export Plug-In . SVG Version: 6.00 Build 0)  -->
<svg version="1.1" xmlns="http://www.w3.org/2000/svg" xmlns:xlink="http://www.w3.org/1999/xlink" x="0px" y="0px"
	 viewBox="0 0 500 500" style="enable-background:new 0 0 500 500;" xml:space="preserve">
<style type="text/css">
	.st0{display:none;}
	.st1{display:inline;}
	.st2{fill:#9ECFDC;}
	.st3{opacity:0.57;fill:#FFFFFF;}
	.st4{fill:#5D5D78;}
	.st5{fill:#CDF3FA;}
	.st6{display:none;fill:#CDF3FA;}
	.st7{display:none;fill:#5D5D78;}
	.st8{fill:#45455F;}
	.st9{display:inline;fill:#5D5D78;}
	.st10{display:inline;fill:#CDF3FA;}
	.st11{display:inline;fill:#45455F;}
	.st12{display:inline;fill:#4D4D6B;}
	.st13{display:inline;fill:#555573;}
	.st14{display:inline;fill:#8B8BAB;}
	.st15{display:inline;fill:#7A7A9C;}
	.st16{display:inline;fill:#6A6A8D;}
	.st17{display:inline;fill:#5C5C7D;}
	.st18{fill:#FFFFFF;}
	.st19{fill:#616180;}
	.st20{fill:#1D262D;}
</style>
<g id="BACKGROUND" class="st0">
	<g class="st1">
		<rect class="st2" width="500" height="500"/>
		<path class="st3" d="M366.75,414.5c0-20.9-21.81-37.84-48.7-37.84c-2.41,0-4.78,0.14-7.09,0.4
			c-8.55-13.41-23.99-22.36-41.61-22.36c-17.25,0-32.4,8.57-41.05,21.5c-2.49-0.31-5.05-0.47-7.65-0.47
			c-26.9,0-48.71,16.94-48.71,37.84c0,18.2,16.55,33.4,38.6,37.02c3.91,17.24,20.79,30.2,41.03,30.2c12.18,0,23.15-4.7,30.8-12.21
			c5.3,3.11,11.61,4.92,18.4,4.92c15.85,0,29.15-9.85,32.81-23.14C352.86,445.34,366.75,431.18,366.75,414.5z"/>
		<path class="st3" d="M284.78,146.24c0-22.95-23.95-41.56-53.5-41.56c-2.65,0-5.25,0.15-7.79,0.44
			c-9.39-14.73-26.35-24.56-45.71-24.56c-18.94,0-35.59,9.41-45.09,23.61c-2.74-0.34-5.55-0.51-8.41-0.51
			c-29.55,0-53.5,18.61-53.5,41.56c0,20,18.18,36.69,42.4,40.66c4.29,18.93,22.84,33.17,45.07,33.17c13.38,0,25.43-5.17,33.83-13.41
			c5.82,3.42,12.75,5.41,20.21,5.41c17.41,0,32.01-10.82,36.04-25.42C269.52,180.1,284.78,164.55,284.78,146.24z"/>
		<path class="st4" d="M437.52,55c-1.86-0.69-3.73-1.23-5.69-1.51c-4.23-0.61-8.5-0.59-12.75-0.9c-9.11-0.67-18.23-0.85-27.36-0.81
			c-7.16,0.03-14.32,0.05-21.48,0.17c-8.41,0.13-16.83,0.13-25.25,0.26c-7.43,0.11-14.86,0.27-22.29,0.47
			c-8.63,0.23-17.27,0.43-25.9,0.83c-8.74,0.4-17.48,0.45-26.23,0.41c-9.51-0.05-19.02,0.12-28.52,0.44
			c-10.11,0.34-20.21,0.64-30.32,1.01c-8.03,0.29-16.06,0.64-24.02,1.9c-4.27,0.67-8.53,1.39-12.71,2.49
			c-6.21,1.63-10.35,5.43-12,11.75c-0.68,2.61-0.94,5.27-0.94,7.95c0,5.95,0.09,11.91-0.17,17.86c-0.43,10.05-0.19,20.11,0.07,30.16
			c0.18,6.83,0.41,13.66,0.22,20.49c-0.18,6.56-0.14,13.11,0.34,19.66c0.32,4.36,0.71,8.74,0.62,13.1
			c-0.24,11.33,0.76,22.61,1.24,33.91c0.29,6.62,1.21,13.17,2.31,19.7c0.36,2.11,0.89,4.17,1.58,6.19c0.9,2.63,2.29,4.75,4.23,6.32
			c0.42,0.5,0.88,0.96,1.39,1.37c-0.66,0.06-1.32,0.13-1.98,0.25c-2.76,0.2-5.3,1.32-7.76,2.66c-9.46,5.14-18.63,10.79-27.75,16.5
			c-11.34,7.11-22.74,14.14-34.31,20.87c-12.84,7.48-25.77,14.81-38.4,22.66c-10.49,6.51-21.12,12.81-31.46,19.56
			c-1.54,1.01-2.1,2.43-2.48,4.04c-0.1,0.43-0.02,0.83,0.14,1.23c-0.09,0.13-0.15,0.3-0.17,0.54c-0.02,0.38,0.04,0.77,0.11,1.14
			c0.42,2.15,1,4.27,1.24,6.44c0.23,2.03,1.27,2.8,3.15,3.29c7.83,2.02,15.69,3.91,23.48,6.08c5.84,1.63,11.75,2.97,17.79,3.73
			c4.01,0.51,8,1.18,11.99,1.84c8.2,1.35,16.23,3.53,24.32,5.41c7.29,1.7,14.59,3.34,21.98,4.57c8.4,1.4,16.87,2.38,25.22,4.18
			c12.87,2.77,25.76,5.44,38.53,8.68c9.06,2.29,18.24,4.12,27.48,5.46c12.81,1.87,25.57,4.1,38.38,5.97
			c12.59,1.84,25.07,4.42,37.77,5.58c5.72,0.52,11.34,1.79,17.05,2.31c2.37,0.22,4.76,0.75,8.14,0.08c3.38-0.83,7.59-2.29,11.1-5.09
			c4.95-3.96,9.68-8.18,13.82-13.03c4.89-5.75,10.01-11.29,15.02-16.94c4.06-4.58,8.55-8.78,12.46-13.49
			c9.05-10.9,18.45-21.48,27.97-31.97c9.15-10.08,18.22-20.23,26.86-30.75c0.88-1.08,1.33-2.21,1.26-3.6
			c-0.06-1.14,0.02-2.3-0.02-3.44c-0.08-2.18-0.19-4.37-0.31-6.55c-0.03-0.55-0.14-1.18-0.82-1.25c-0.12-0.01-0.2,0.02-0.29,0.05
			c-0.04-0.38-0.18-0.7-0.42-1c3.58-2.02,5.6-5.36,6.41-10.62c0.32-2.05,0.56-4.11,0.76-6.18c0.53-5.44,0.74-10.9,0.61-16.37
			c-0.1-4.21,0.33-8.4,0.41-12.61c0.1-5.19-0.03-10.38,0.3-15.57c0.24-3.65,0.61-7.29,0.69-10.96c0.24-10.71-0.02-21.42,0.17-32.12
			c0.07-4.26-0.07-8.52-0.09-12.78c-0.02-6.61,0.42-13.22,0.43-19.82c0.03-10.88,1.09-21.71,1.47-32.57
			c0.21-6.01,0.63-12,0.41-18.02c-0.2-5.63-0.45-11.25-0.62-16.88c-0.11-3.41-0.45-6.75-1.77-9.95
			C441.24,57.54,439.86,55.87,437.52,55z"/>
	</g>
</g>
<g id="OBJECTS">
	<g>
		<path class="st5" d="M91.72,138c-0.19,1.63-0.14,3.09-0.25,4.56c-0.12,1.64-0.41,3.23-1.17,4.7c-1.36,2.66-4.05,4-6.95,3.34
			c-2.43-0.55-4.49-1.74-5.92-3.88c-1.84-2.76-3.01-5.78-3.39-9.06c-0.5-4.35,0.98-8.03,4.37-10.76c2.57-2.08,5.7-2.72,8.97-2.49
			c1.11,0.08,2.03,0.66,2.62,1.65c0.61,1.02,1.22,2.04,1.84,3.06c1.35,2.23,3,4.19,5.07,5.79c0.67,0.51,1.39,0.91,2.18,1.2
			c0.5,0.19,0.84,0.01,1.08-0.44c0.19-0.36,0.28-0.74,0.33-1.14c0.1-0.87,0.1-1.75-0.12-2.61c-1.19-4.62-3.32-8.7-7.21-11.6
			c-4.08-3.04-8.62-3.9-13.52-2.31c-7.5,2.44-11.34,7.91-12.49,15.46c-0.52,3.4-0.27,6.82,0.46,10.19
			c1.07,4.94,3.65,8.94,7.79,11.84c2.45,1.71,5.27,2.63,8.23,2.86c7.74,0.6,14.71-1.61,20.49-6.72c7.29-6.46,10.01-14.57,7.42-24.19
			c-0.83-3.09-2.13-5.97-3.69-8.75c-0.19-0.35-0.4-0.69-0.56-1.05c-0.69-1.52-0.22-3.06,1.13-3.81c1.33-0.73,2.96-0.3,3.82,1.12
			c0.76,1.25,1.45,2.55,2.1,3.87c2,4.02,3.24,8.27,3.71,12.74c0.63,5.9-0.8,11.34-3.66,16.46c-6.15,11.01-19.35,17.17-31.37,15.99
			c-5.1-0.5-9.71-2.35-13.49-5.91c-3-2.82-5.29-6.16-6.58-10.06c-2.06-6.21-2.43-12.57-0.73-18.9c1.58-5.91,4.85-10.79,10.15-14.03
			c3.56-2.18,7.45-3.58,11.71-3.53c6.69,0.07,12.12,2.79,16.37,7.91c2.71,3.26,4.49,7.01,5.43,11.13c0.6,2.64,0.57,5.29-0.74,7.77
			c-1.59,3-4.52,4.2-7.75,3.15c-1.53-0.5-2.91-1.27-4.16-2.27C92.74,138.85,92.23,138.42,91.72,138z M84.68,130.28
			c-3.23,0.64-5.22,3.11-5.01,6.23c0.17,2.57,1.08,4.93,2.53,7.07c0.5,0.74,1.23,1.1,2.03,1.36c0.68,0.22,0.86,0.09,1.16-0.61
			c0.22-0.52,0.31-1.06,0.37-1.61C86.15,138.52,85.36,134.44,84.68,130.28z"/>
		<path class="st6" d="M311.08,425.36c-1.06,0.57-1.91,1.22-2.83,1.77c-1.03,0.61-2.11,1.11-3.31,1.27
			c-2.16,0.3-4.09-0.75-4.91-2.77c-0.69-1.69-0.84-3.42-0.16-5.18c0.88-2.26,2.2-4.23,4.01-5.83c2.4-2.12,5.22-2.78,8.28-1.9
			c2.33,0.67,4.02,2.28,5.26,4.33c0.42,0.7,0.46,1.49,0.11,2.26c-0.36,0.79-0.71,1.59-1.06,2.39c-0.77,1.74-1.25,3.55-1.34,5.46
			c-0.03,0.62,0.04,1.22,0.19,1.81c0.1,0.38,0.35,0.51,0.72,0.46c0.29-0.04,0.56-0.14,0.82-0.28c0.57-0.31,1.09-0.67,1.51-1.16
			c2.27-2.65,3.82-5.64,3.92-9.19c0.11-3.72-1.28-6.8-4.29-9.07c-4.61-3.47-9.5-3.48-14.51-1c-2.26,1.12-4.2,2.7-5.91,4.55
			c-2.51,2.71-3.83,5.94-3.83,9.64c0,2.19,0.63,4.26,1.74,6.14c2.89,4.89,7.14,8.14,12.62,9.46c6.93,1.66,12.93-0.11,17.61-5.7
			c1.5-1.79,2.68-3.78,3.69-5.88c0.13-0.26,0.25-0.53,0.39-0.78c0.62-1.05,1.74-1.42,2.76-0.92c1,0.49,1.42,1.65,0.93,2.76
			c-0.43,0.98-0.92,1.94-1.44,2.88c-1.57,2.88-3.6,5.41-6.08,7.57c-3.27,2.85-7.13,4.28-11.4,4.71
			c-9.18,0.94-18.41-4.39-22.74-12.09c-1.84-3.27-2.67-6.8-2.12-10.57c0.43-2.98,1.47-5.75,3.27-8.17
			c2.86-3.84,6.52-6.73,11.02-8.37c4.2-1.53,8.5-1.62,12.67,0.19c2.8,1.22,5.27,2.96,7.03,5.54c2.77,4.04,3.41,8.44,2.13,13.13
			c-0.82,2.99-2.32,5.63-4.39,7.93c-1.33,1.47-2.93,2.56-4.97,2.82c-2.47,0.31-4.41-0.95-5.13-3.32c-0.34-1.12-0.46-2.27-0.38-3.44
			C310.99,426.33,311.04,425.85,311.08,425.36z M312.75,417.9c-1.74-1.67-4.05-1.83-5.84-0.39c-1.47,1.18-2.5,2.71-3.17,4.48
			c-0.23,0.61-0.14,1.2,0.04,1.78c0.15,0.5,0.31,0.55,0.85,0.44c0.4-0.08,0.77-0.26,1.12-0.46
			C308.43,422.24,310.54,420.06,312.75,417.9z"/>
		<path class="st7" d="M416.96,208.25c0.28-0.78,1.09-1.45,2.2-1.76c0.65-0.18,1.32-0.3,1.99-0.39c7.02-0.94,14.05-1.78,21.13-2.08
			c0.95-0.04,1.9-0.05,2.84-0.04c0.45,0.01,0.61-0.17,0.58-0.6c-0.03-0.44-0.01-0.88-0.05-1.32c-0.08-1.11,0.28-2.15,0.6-3.17
			c0.43-1.36,2.09-1.96,3.35-1.27c0.47,0.26,0.9,0.6,1.33,0.93c4.85,3.85,9.69,7.72,14.54,11.57c0.5,0.4,1.05,0.75,1.54,1.16
			c1.65,1.4,1.82,3.14,0.5,4.84c-0.4,0.51-0.88,0.93-1.36,1.36c-1.95,1.74-4.11,3.21-6.27,4.68c-3.08,2.1-6.14,4.22-9.32,6.18
			c-0.2,0.12-0.4,0.25-0.62,0.36c-1.47,0.71-3.01,0.06-3.5-1.5c-0.29-0.91-0.29-1.87-0.38-2.81c-0.05-0.53,0.12-1.2-0.23-1.57
			c-0.37-0.38-1.03-0.14-1.56-0.15c-5.75-0.1-11.51,0.02-17.27-0.23c-1.93-0.08-3.85-0.2-5.78-0.3c-0.68-0.04-1.35-0.13-2-0.32
			c-1.45-0.42-2.27-1.4-2.57-2.86c-0.04-0.2-0.07-0.4-0.09-0.6c-0.19-2.53-0.31-5.07-0.15-7.61
			C416.48,210.02,416.57,209.28,416.96,208.25z"/>
		<path class="st5" d="M192.95,89.2c-1.57,1.6-3,3.02-4.4,4.48c-9.68,10.1-19.35,20.2-29.02,30.31c-1.16,1.21-1.19,0.95-0.01,2.2
			c0.65,0.69,1.41,1.28,1.89,2.13c0.79,1.39,0.49,2.36-1,2.91c-3.58,1.32-7.18,2.57-10.84,3.65c-0.46,0.13-0.92,0.26-1.39,0.3
			c-1.3,0.13-2.23-0.72-2.23-2.04c0-0.43,0.06-0.88,0.19-1.29c1.16-3.76,2.46-7.46,3.94-11.11c0.28-0.7,0.73-1.23,1.52-1.38
			c0.72-0.13,1.34,0.07,1.84,0.6c0.69,0.71,1.37,1.44,2.07,2.14c0.6,0.61,0.63,0.62,1.22,0.01c1.9-1.98,3.78-3.97,5.68-5.95
			c4.87-5.07,9.75-10.14,14.62-15.22c0.19-0.2,0.38-0.4,0.54-0.57c-0.04-0.45-0.39-0.45-0.62-0.52c-3.39-0.99-6.78-1.99-10.36-2.08
			c-1.58-0.04-2.99,0.36-4.25,1.27c-2.49,1.79-4.77,3.82-6.92,6.01c-0.58,0.59-0.57,0.61-0.03,1.24c0.15,0.18,0.32,0.35,0.47,0.54
			c0.75,0.93,0.86,1.76,0.17,2.73c-1.57,2.2-3.3,4.28-5.32,6.1c-0.77,0.69-1.63,0.75-2.54,0.3c-0.18-0.09-0.35-0.19-0.51-0.31
			c-2.01-1.56-4.01-3.14-5.7-5.05c-0.87-0.99-0.94-2.12-0.15-3.17c1.38-1.85,2.93-3.56,4.71-5.04c0.48-0.4,1.08-0.68,1.66-0.92
			c0.75-0.32,1.49-0.17,2.13,0.33c0.44,0.34,0.83,0.74,1.25,1.1c0.69,0.59,0.71,0.6,1.34-0.03c1.86-1.85,3.79-3.62,5.85-5.25
			c0.65-0.52,1.32-1.01,2.02-1.48c1.77-1.19,3.72-1.75,5.86-1.65c2.03,0.1,4.04,0.29,6.01,0.79c2.31,0.59,4.64,1.08,6.85,2.01
			c0.56,0.23,0.92,0.15,1.35-0.3c4.6-4.83,9.22-9.65,13.86-14.46c0.46-0.48,0.64-0.87,0.12-1.39c-0.14-0.14-0.21-0.33-0.32-0.5
			c-2.76-4.08-1.49-8,0.74-10.55c3.04-3.48,8.25-4.99,12.93-2c1.21,0.77,2.27,1.74,3.17,2.86c1.13,1.41,1.75,3.03,1.74,4.84
			c0,2.27-0.43,4.48-1.87,6.28c-1.74,2.18-4.01,3.6-6.82,4c-2.1,0.3-4.01-0.27-5.81-1.32c-0.92-0.54-0.85-0.45-1.67,0.2
			c-1.35,1.06-1.51,2.13-0.69,3.64c0.79,1.46,1.28,3.07,1.86,4.64c0.29,0.78,0.5,1.59,0.7,2.4c0.95,3.87,0.07,7.3-2.52,10.33
			c-1.35,1.57-2.74,3.1-4.2,4.56c-0.44,0.44-0.55,0.81-0.35,1.45c0.77,2.47-0.15,5.23-2.2,6.83c-0.25,0.19-0.53,0.37-0.82,0.48
			c-2.06,0.76-3.93,0.35-5.56-1.05c-1.58-1.35-1.99-3.12-1.45-5.08c0.4-1.44,1.13-2.7,2.35-3.64c1.28-0.99,2.68-1.35,4.25-0.88
			c0.42,0.13,0.8,0.29,1.19-0.14c1.76-1.89,3.6-3.7,5.1-5.82c1.17-1.66,1.47-3.48,1.16-5.44c-0.06-0.35-0.12-0.7-0.2-1.05
			C194.98,93.84,193.86,91.68,192.95,89.2z"/>
		<path class="st6" d="M351.34,390.54c-0.22-2.22-0.41-4.24-0.63-6.25c-1.57-13.9-3.14-27.8-4.72-41.69
			c-0.19-1.66,0.04-1.52-1.69-1.42c-0.95,0.06-1.89,0.26-2.85,0.09c-1.57-0.28-2.13-1.14-1.6-2.63c1.27-3.59,2.62-7.16,4.13-10.66
			c0.19-0.44,0.39-0.87,0.66-1.27c0.73-1.08,1.99-1.25,2.99-0.41c0.33,0.28,0.64,0.61,0.87,0.97c2.14,3.3,4.16,6.67,6.01,10.14
			c0.35,0.66,0.48,1.35,0.09,2.05c-0.36,0.64-0.91,0.98-1.64,1.04c-0.99,0.08-1.98,0.13-2.97,0.22c-0.85,0.08-0.88,0.09-0.79,0.94
			c0.3,2.73,0.63,5.45,0.94,8.17c0.78,6.99,1.56,13.98,2.34,20.97c0.03,0.27,0.07,0.55,0.1,0.78c0.37,0.26,0.59-0.01,0.79-0.15
			c2.93-1.97,5.87-3.94,8.23-6.63c1.04-1.19,1.63-2.53,1.74-4.08c0.22-3.06,0.11-6.11-0.19-9.16c-0.08-0.82-0.1-0.82-0.93-0.82
			c-0.24,0-0.48,0.02-0.71,0.02c-1.19-0.02-1.9-0.46-2.21-1.61c-0.69-2.62-1.18-5.27-1.29-7.99c-0.04-1.03,0.46-1.74,1.4-2.15
			c0.18-0.08,0.37-0.15,0.56-0.19c2.48-0.54,4.97-1.07,7.52-1.15c1.32-0.04,2.23,0.63,2.53,1.91c0.53,2.25,0.87,4.53,0.86,6.84
			c0,0.62-0.17,1.26-0.35,1.86c-0.24,0.78-0.82,1.26-1.62,1.43c-0.54,0.11-1.1,0.17-1.65,0.26c-0.9,0.15-0.91,0.16-0.83,1.05
			c0.23,2.61,0.36,5.23,0.29,7.86c-0.02,0.83-0.07,1.67-0.15,2.49c-0.22,2.12-1.04,3.98-2.48,5.56c-1.37,1.5-2.81,2.92-4.46,4.11
			c-1.93,1.4-3.8,2.88-5.93,3.98c-0.54,0.28-0.7,0.61-0.63,1.22c0.77,6.63,1.52,13.26,2.25,19.9c0.07,0.66,0.25,1.05,0.99,0.98
			c0.19-0.02,0.39,0.05,0.59,0.07c4.9,0.49,7.1,3.98,7.64,7.32c0.73,4.56-1.45,9.54-6.74,11.22c-1.37,0.44-2.79,0.63-4.23,0.61
			c-1.8-0.03-3.44-0.6-4.83-1.76c-1.74-1.46-3.17-3.19-3.63-5.46c-0.56-2.73-0.2-5.38,1.29-7.8c1.11-1.81,2.77-2.91,4.73-3.62
			c1.01-0.36,0.89-0.36,0.92-1.41c0.05-1.71-0.67-2.52-2.36-2.86c-1.62-0.33-3.18-0.98-4.75-1.54c-0.78-0.28-1.54-0.63-2.29-1
			c-3.58-1.75-5.66-4.62-6.33-8.54c-0.35-2.04-0.63-4.08-0.82-6.14c-0.06-0.62-0.27-0.94-0.89-1.19c-2.39-0.98-3.92-3.46-3.84-6.07
			c0.01-0.31,0.05-0.64,0.16-0.93c0.73-2.07,2.25-3.24,4.36-3.6c2.05-0.35,3.67,0.47,4.83,2.14c0.85,1.23,1.35,2.6,1.3,4.13
			c-0.06,1.62-0.68,2.92-2.05,3.83c-0.36,0.24-0.73,0.43-0.66,1c0.32,2.56,0.53,5.13,1.21,7.64c0.53,1.96,1.74,3.36,3.44,4.38
			c0.31,0.18,0.62,0.36,0.94,0.52C346.48,389.14,348.85,389.66,351.34,390.54z"/>
		<path class="st8" d="M256.44,408.85c0.37-1.71-0.01-2.84-1.84-3.53c-1.75-0.65-1.68-0.85-3.12,0.36
			c-0.27,0.22-0.53,0.45-0.82,0.65c-1.41,0.97-2.53,0.92-3.77-0.24c-0.98-0.92-1.96-1.85-2.76-2.93c-1.05-1.4-0.96-2.65,0.34-3.84
			c0.69-0.64,1.48-1.18,2.25-1.72c0.47-0.33,0.67-0.66,0.41-1.24c-0.39-0.86-0.23-2.02-0.89-2.64c-0.67-0.62-1.79-0.44-2.71-0.62
			c-2.45-0.48-3.16-1.29-3.07-3.74c0.04-1.09,0.14-2.19,0.28-3.27c0.2-1.55,1.09-2.37,2.67-2.53c0.84-0.09,1.7-0.06,2.53,0.11
			c0.76,0.16,1.1-0.14,1.27-0.83c0.11-0.43,0.24-0.89,0.49-1.25c0.8-1.12,0.48-1.98-0.46-2.84c-0.51-0.46-0.92-1.05-1.31-1.62
			c-0.9-1.3-0.91-2.48,0.05-3.72c1.01-1.3,2.25-2.4,3.5-3.45c0.92-0.78,2.07-0.66,3.15,0.23c0.77,0.63,1.48,1.33,2.15,2.07
			c0.51,0.56,1,0.76,1.67,0.3c0.16-0.11,0.35-0.21,0.54-0.24c1.71-0.25,2.19-1.38,2.19-2.92c0-0.74,0.11-1.49,0.38-2.2
			c0.48-1.23,1.34-1.96,2.69-1.99c1.65-0.05,3.28,0.15,4.87,0.61c1.44,0.42,2.14,1.36,2.11,2.87c-0.02,0.99-0.1,1.99-0.2,2.98
			c-0.06,0.58,0.12,0.94,0.68,1.15c0.46,0.17,0.95,0.36,1.34,0.65c1.16,0.88,2.14,0.66,3.12-0.31c0.46-0.45,1.01-0.81,1.56-1.15
			c1.27-0.77,2.46-0.67,3.55,0.36c0.79,0.75,1.55,1.55,2.21,2.42c1.29,1.71,1.05,3.08-0.67,4.34c-0.48,0.35-0.97,0.69-1.47,1.02
			c-0.4,0.27-0.47,0.59-0.24,1.02c0.23,0.44,0.54,0.88,0.6,1.36c0.26,1.9,1.43,2.35,3.13,2.19c0.79-0.07,1.59,0.11,2.36,0.32
			c1.34,0.38,2.11,1.31,2.14,2.7c0.04,1.39,0.05,2.79-0.06,4.18c-0.2,2.37-1.44,3.32-3.81,3.09c-0.84-0.08-1.78-0.39-2.49-0.02
			c-0.68,0.36-0.49,1.47-0.94,2.1c-1.08,1.52-0.7,2.7,0.62,3.81c0.41,0.34,0.71,0.84,0.96,1.32c0.53,1.01,0.49,2.04-0.26,2.93
			c-1.02,1.22-2.11,2.39-3.32,3.43c-1.22,1.05-2.75,0.93-3.86-0.27c-0.61-0.65-1.15-1.37-1.69-2.09c-0.33-0.44-0.64-0.68-1.24-0.41
			c-1.09,0.5-2.26,0.78-3.45,0.93c-0.64,0.08-0.8,0.39-0.83,0.98c-0.05,0.99-0.14,1.99-0.27,2.97c-0.28,2.2-1.34,3.16-3.54,3.26
			c-1.45,0.06-2.89-0.1-4.32-0.29c-1.36-0.18-2.19-1.08-2.42-2.47C256.3,410.41,256.4,409.62,256.44,408.85z M271.61,389.59
			c0.03-2.54-0.94-4.67-2.61-6.5c-1.81-1.97-5.54-3.04-7.68-1.91c-3.62,1.92-6.46,4.59-6.48,9.09c-0.01,2.92,1.19,5.35,3.73,6.89
			c2.83,1.71,5.79,1.73,8.65,0.07C270.12,395.55,271.52,392.92,271.61,389.59z"/>
		<path class="st6" d="M370.23,52.75c0.21-0.89,0-1.48-1.06-1.84c-1.01-0.34-0.97-0.44-1.8,0.19c-0.15,0.12-0.31,0.24-0.47,0.34
			c-0.81,0.5-1.46,0.48-2.18-0.12c-0.57-0.48-1.13-0.97-1.6-1.53c-0.61-0.73-0.55-1.39,0.19-2c0.4-0.33,0.85-0.61,1.3-0.9
			c0.27-0.17,0.39-0.34,0.24-0.65c-0.22-0.45-0.13-1.05-0.52-1.38c-0.39-0.33-1.04-0.23-1.57-0.32c-1.41-0.25-1.83-0.67-1.77-1.95
			c0.02-0.57,0.08-1.14,0.16-1.71c0.12-0.81,0.63-1.24,1.54-1.32c0.49-0.04,0.98-0.03,1.46,0.06c0.44,0.08,0.63-0.07,0.74-0.43
			c0.06-0.22,0.14-0.47,0.28-0.65c0.46-0.59,0.28-1.04-0.26-1.48c-0.29-0.24-0.53-0.55-0.76-0.85c-0.52-0.68-0.53-1.29,0.03-1.94
			c0.58-0.68,1.3-1.25,2.02-1.8c0.53-0.4,1.19-0.34,1.82,0.12c0.44,0.33,0.86,0.7,1.24,1.08c0.3,0.29,0.58,0.4,0.96,0.16
			c0.09-0.06,0.2-0.11,0.31-0.13c0.98-0.13,1.26-0.72,1.27-1.52c0-0.39,0.06-0.78,0.22-1.15c0.28-0.64,0.77-1.02,1.56-1.04
			c0.95-0.02,1.9,0.08,2.81,0.32c0.83,0.22,1.23,0.71,1.22,1.5c-0.01,0.52-0.06,1.04-0.11,1.55c-0.03,0.3,0.07,0.49,0.39,0.6
			c0.27,0.09,0.55,0.19,0.77,0.34c0.67,0.46,1.23,0.34,1.8-0.16c0.26-0.23,0.58-0.43,0.9-0.6c0.74-0.4,1.42-0.35,2.05,0.19
			c0.46,0.39,0.9,0.81,1.28,1.26c0.75,0.89,0.61,1.61-0.39,2.27c-0.28,0.18-0.56,0.36-0.85,0.53c-0.23,0.14-0.27,0.31-0.14,0.53
			c0.13,0.23,0.31,0.46,0.35,0.71c0.15,0.99,0.83,1.23,1.81,1.14c0.46-0.04,0.92,0.05,1.36,0.17c0.77,0.2,1.22,0.68,1.24,1.41
			c0.02,0.73,0.03,1.46-0.04,2.18c-0.12,1.24-0.83,1.73-2.2,1.61c-0.48-0.04-1.03-0.21-1.44-0.01c-0.39,0.19-0.28,0.77-0.54,1.1
			c-0.63,0.79-0.4,1.41,0.36,1.99c0.23,0.18,0.41,0.44,0.56,0.69c0.31,0.53,0.29,1.06-0.15,1.53c-0.59,0.64-1.22,1.25-1.92,1.79
			c-0.7,0.55-1.59,0.49-2.23-0.14c-0.35-0.34-0.67-0.72-0.98-1.09c-0.19-0.23-0.37-0.36-0.72-0.21c-0.63,0.26-1.31,0.41-1.99,0.49
			c-0.37,0.04-0.46,0.21-0.48,0.51c-0.03,0.52-0.08,1.04-0.15,1.55c-0.16,1.15-0.78,1.65-2.04,1.7c-0.84,0.03-1.67-0.05-2.49-0.15
			c-0.79-0.09-1.26-0.56-1.39-1.29C370.15,53.56,370.21,53.15,370.23,52.75z M378.99,42.69c0.02-1.32-0.54-2.44-1.51-3.39
			c-1.05-1.03-3.2-1.59-4.44-1c-2.09,1-3.73,2.39-3.74,4.75c-0.01,1.52,0.69,2.79,2.15,3.59c1.63,0.89,3.34,0.91,5,0.04
			C378.13,45.8,378.94,44.43,378.99,42.69z"/>
		<path class="st6" d="M50.47,399.64c0.21-0.89,0-1.48-1.06-1.84c-1.01-0.34-0.97-0.44-1.8,0.19c-0.15,0.12-0.31,0.24-0.47,0.34
			c-0.81,0.5-1.46,0.48-2.18-0.12c-0.57-0.48-1.13-0.97-1.6-1.53c-0.61-0.73-0.55-1.39,0.19-2c0.4-0.33,0.85-0.61,1.3-0.9
			c0.27-0.17,0.39-0.34,0.24-0.65c-0.22-0.45-0.13-1.05-0.52-1.38c-0.39-0.33-1.04-0.23-1.57-0.32c-1.42-0.25-1.83-0.67-1.77-1.95
			c0.02-0.57,0.08-1.14,0.16-1.71c0.12-0.81,0.63-1.24,1.54-1.32c0.49-0.04,0.98-0.03,1.46,0.06c0.44,0.08,0.63-0.07,0.74-0.43
			c0.06-0.22,0.14-0.47,0.28-0.65c0.46-0.59,0.28-1.04-0.26-1.48c-0.29-0.24-0.53-0.55-0.76-0.85c-0.52-0.68-0.53-1.29,0.03-1.94
			c0.58-0.68,1.3-1.25,2.02-1.8c0.53-0.4,1.19-0.34,1.82,0.12c0.44,0.33,0.86,0.7,1.24,1.08c0.3,0.29,0.58,0.4,0.96,0.16
			c0.09-0.06,0.2-0.11,0.31-0.12c0.98-0.13,1.26-0.72,1.27-1.52c0-0.39,0.06-0.78,0.22-1.15c0.28-0.64,0.77-1.02,1.56-1.04
			c0.95-0.02,1.9,0.08,2.81,0.32c0.83,0.22,1.23,0.71,1.22,1.5c-0.01,0.52-0.06,1.04-0.11,1.55c-0.03,0.3,0.07,0.49,0.39,0.6
			c0.27,0.09,0.55,0.19,0.77,0.34c0.67,0.46,1.23,0.34,1.8-0.16c0.26-0.23,0.58-0.43,0.9-0.6c0.74-0.4,1.42-0.35,2.05,0.19
			c0.46,0.39,0.9,0.81,1.28,1.26c0.75,0.89,0.61,1.61-0.39,2.27c-0.28,0.18-0.56,0.36-0.85,0.53c-0.23,0.14-0.27,0.31-0.14,0.53
			c0.13,0.23,0.31,0.46,0.35,0.71c0.15,0.99,0.83,1.23,1.81,1.14c0.46-0.04,0.92,0.05,1.36,0.17c0.77,0.2,1.22,0.68,1.24,1.41
			c0.02,0.73,0.03,1.46-0.04,2.18c-0.12,1.24-0.83,1.73-2.2,1.61c-0.48-0.04-1.03-0.21-1.44-0.01c-0.39,0.19-0.28,0.77-0.54,1.1
			c-0.63,0.79-0.4,1.41,0.36,1.99c0.23,0.18,0.41,0.44,0.56,0.69c0.31,0.53,0.29,1.06-0.15,1.53c-0.59,0.64-1.22,1.25-1.92,1.79
			c-0.7,0.55-1.59,0.49-2.23-0.14c-0.35-0.34-0.67-0.72-0.98-1.09c-0.19-0.23-0.37-0.36-0.72-0.21c-0.63,0.26-1.31,0.41-1.99,0.49
			c-0.37,0.04-0.46,0.21-0.48,0.51c-0.03,0.52-0.08,1.04-0.15,1.55c-0.16,1.15-0.78,1.65-2.04,1.7c-0.84,0.03-1.67-0.05-2.49-0.15
			c-0.79-0.09-1.26-0.56-1.39-1.29C50.39,400.46,50.45,400.04,50.47,399.64z M59.23,389.59c0.02-1.32-0.54-2.44-1.51-3.39
			c-1.05-1.03-3.2-1.59-4.44-1c-2.09,1-3.73,2.39-3.74,4.75c-0.01,1.52,0.69,2.79,2.15,3.59c1.63,0.89,3.34,0.91,5,0.04
			C58.37,392.7,59.18,391.33,59.23,389.59z"/>
		<path class="st6" d="M42.99,176.19c0.21-0.89,0-1.48-1.06-1.84c-1.01-0.34-0.97-0.44-1.8,0.19c-0.15,0.12-0.31,0.24-0.47,0.34
			c-0.81,0.5-1.46,0.48-2.18-0.12c-0.57-0.48-1.13-0.97-1.6-1.53c-0.61-0.73-0.55-1.39,0.19-2c0.4-0.33,0.85-0.61,1.3-0.9
			c0.27-0.17,0.39-0.34,0.24-0.65c-0.22-0.45-0.13-1.05-0.52-1.38c-0.39-0.33-1.04-0.23-1.57-0.32c-1.42-0.25-1.83-0.67-1.77-1.95
			c0.02-0.57,0.08-1.14,0.16-1.71c0.12-0.81,0.63-1.24,1.54-1.32c0.49-0.04,0.98-0.03,1.46,0.06c0.44,0.08,0.63-0.07,0.74-0.43
			c0.06-0.22,0.14-0.47,0.28-0.65c0.46-0.59,0.28-1.04-0.26-1.48c-0.29-0.24-0.53-0.55-0.76-0.85c-0.52-0.68-0.53-1.29,0.03-1.94
			c0.58-0.68,1.3-1.25,2.02-1.8c0.53-0.4,1.19-0.34,1.82,0.12c0.44,0.33,0.86,0.7,1.24,1.08c0.3,0.29,0.58,0.4,0.96,0.16
			c0.09-0.06,0.2-0.11,0.31-0.12c0.98-0.13,1.26-0.72,1.27-1.52c0-0.39,0.06-0.78,0.22-1.15c0.28-0.64,0.77-1.02,1.56-1.04
			c0.95-0.02,1.9,0.08,2.81,0.32c0.83,0.22,1.23,0.71,1.22,1.5c-0.01,0.52-0.06,1.04-0.11,1.55c-0.03,0.3,0.07,0.49,0.39,0.6
			c0.27,0.09,0.55,0.19,0.77,0.34c0.67,0.46,1.23,0.34,1.8-0.16c0.26-0.23,0.58-0.43,0.9-0.6c0.74-0.4,1.42-0.35,2.05,0.19
			c0.46,0.39,0.9,0.81,1.28,1.26c0.75,0.89,0.61,1.61-0.39,2.27c-0.28,0.18-0.56,0.36-0.85,0.53c-0.23,0.14-0.27,0.31-0.14,0.53
			c0.13,0.23,0.31,0.46,0.35,0.71c0.15,0.99,0.83,1.23,1.81,1.14c0.46-0.04,0.92,0.05,1.36,0.17c0.77,0.2,1.22,0.68,1.24,1.41
			c0.02,0.73,0.03,1.46-0.04,2.18c-0.12,1.24-0.83,1.73-2.2,1.61c-0.48-0.04-1.03-0.21-1.44-0.01c-0.39,0.19-0.28,0.77-0.54,1.1
			c-0.63,0.79-0.41,1.41,0.36,1.99c0.23,0.18,0.41,0.44,0.56,0.69c0.31,0.53,0.29,1.06-0.15,1.53c-0.59,0.64-1.22,1.25-1.92,1.79
			c-0.7,0.55-1.59,0.49-2.23-0.14c-0.35-0.34-0.67-0.72-0.98-1.09c-0.19-0.23-0.37-0.36-0.72-0.21c-0.63,0.26-1.31,0.41-1.99,0.49
			c-0.37,0.04-0.46,0.21-0.48,0.51c-0.03,0.52-0.08,1.04-0.15,1.55c-0.16,1.15-0.78,1.65-2.04,1.7c-0.84,0.03-1.67-0.05-2.49-0.15
			c-0.79-0.09-1.26-0.56-1.39-1.29C42.91,177.01,42.97,176.59,42.99,176.19z M51.75,166.14c0.02-1.32-0.54-2.44-1.51-3.39
			c-1.05-1.03-3.2-1.59-4.44-1c-2.09,1-3.73,2.39-3.74,4.75c-0.01,1.52,0.69,2.79,2.15,3.59c1.63,0.89,3.34,0.91,5,0.04
			C50.88,169.25,51.69,167.88,51.75,166.14z"/>
		<path class="st6" d="M446.38,320.12c0.21-0.89,0-1.48-1.06-1.84c-1.01-0.34-0.97-0.44-1.8,0.19c-0.15,0.12-0.31,0.24-0.47,0.34
			c-0.81,0.5-1.46,0.48-2.18-0.12c-0.57-0.48-1.13-0.97-1.6-1.53c-0.61-0.73-0.55-1.39,0.19-2c0.4-0.33,0.85-0.61,1.3-0.9
			c0.27-0.17,0.39-0.34,0.24-0.65c-0.22-0.45-0.13-1.05-0.52-1.38c-0.39-0.33-1.04-0.23-1.57-0.32c-1.42-0.25-1.83-0.67-1.77-1.95
			c0.02-0.57,0.08-1.14,0.16-1.71c0.12-0.81,0.63-1.24,1.54-1.32c0.49-0.04,0.98-0.03,1.46,0.06c0.44,0.08,0.63-0.07,0.74-0.43
			c0.06-0.22,0.14-0.47,0.28-0.65c0.46-0.59,0.28-1.04-0.26-1.48c-0.29-0.24-0.53-0.55-0.76-0.85c-0.52-0.68-0.53-1.29,0.03-1.94
			c0.58-0.68,1.3-1.25,2.02-1.8c0.53-0.4,1.19-0.34,1.82,0.12c0.44,0.33,0.86,0.7,1.24,1.08c0.3,0.29,0.58,0.4,0.96,0.16
			c0.09-0.06,0.2-0.11,0.31-0.13c0.98-0.13,1.26-0.72,1.27-1.52c0-0.39,0.06-0.78,0.22-1.15c0.28-0.64,0.77-1.02,1.56-1.04
			c0.95-0.02,1.9,0.08,2.81,0.32c0.83,0.22,1.23,0.71,1.22,1.5c-0.01,0.52-0.06,1.04-0.11,1.55c-0.03,0.3,0.07,0.49,0.39,0.6
			c0.27,0.09,0.55,0.19,0.77,0.34c0.67,0.46,1.23,0.34,1.8-0.16c0.26-0.23,0.58-0.43,0.9-0.6c0.74-0.4,1.42-0.35,2.05,0.19
			c0.46,0.39,0.9,0.81,1.28,1.26c0.75,0.89,0.61,1.61-0.39,2.27c-0.28,0.18-0.56,0.36-0.85,0.53c-0.23,0.14-0.27,0.31-0.14,0.53
			c0.13,0.23,0.31,0.46,0.35,0.71c0.15,0.99,0.83,1.23,1.81,1.14c0.46-0.04,0.92,0.05,1.36,0.17c0.77,0.2,1.22,0.68,1.24,1.41
			c0.02,0.73,0.03,1.46-0.04,2.18c-0.12,1.24-0.83,1.73-2.2,1.61c-0.48-0.04-1.03-0.21-1.44-0.01c-0.39,0.19-0.28,0.77-0.54,1.1
			c-0.63,0.79-0.4,1.41,0.36,1.99c0.23,0.18,0.41,0.44,0.56,0.69c0.31,0.53,0.29,1.06-0.15,1.53c-0.59,0.64-1.22,1.25-1.92,1.79
			c-0.7,0.55-1.59,0.49-2.23-0.14c-0.35-0.34-0.67-0.72-0.98-1.09c-0.19-0.23-0.37-0.36-0.72-0.21c-0.63,0.26-1.3,0.41-1.99,0.49
			c-0.37,0.04-0.46,0.21-0.48,0.51c-0.03,0.52-0.08,1.04-0.15,1.55c-0.16,1.15-0.78,1.65-2.04,1.7c-0.84,0.03-1.67-0.05-2.49-0.15
			c-0.79-0.09-1.26-0.56-1.39-1.29C446.3,320.93,446.36,320.52,446.38,320.12z M455.14,310.06c0.02-1.32-0.54-2.44-1.51-3.39
			c-1.05-1.03-3.2-1.59-4.44-1c-2.09,1-3.73,2.39-3.74,4.75c-0.01,1.52,0.69,2.79,2.15,3.59c1.63,0.89,3.34,0.91,5,0.04
			C454.28,313.17,455.09,311.8,455.14,310.06z"/>
		<path class="st7" d="M147,46.23c0.21-0.99,0-1.64-1.06-2.04c-1.01-0.38-0.97-0.49-1.8,0.21c-0.15,0.13-0.31,0.26-0.47,0.37
			c-0.81,0.56-1.46,0.53-2.18-0.14c-0.57-0.53-1.13-1.07-1.6-1.69c-0.61-0.81-0.55-1.53,0.19-2.22c0.4-0.37,0.85-0.68,1.3-0.99
			c0.27-0.19,0.39-0.38,0.24-0.72c-0.22-0.5-0.13-1.17-0.52-1.52c-0.38-0.36-1.04-0.25-1.57-0.36c-1.41-0.28-1.83-0.74-1.77-2.16
			c0.02-0.63,0.08-1.26,0.16-1.89c0.12-0.89,0.63-1.37,1.54-1.46c0.49-0.05,0.98-0.03,1.46,0.07c0.44,0.09,0.63-0.08,0.74-0.48
			c0.06-0.25,0.14-0.51,0.28-0.72c0.46-0.65,0.28-1.15-0.26-1.64c-0.29-0.27-0.53-0.61-0.76-0.94c-0.52-0.75-0.53-1.43,0.03-2.15
			c0.58-0.75,1.3-1.39,2.02-2c0.53-0.45,1.19-0.38,1.82,0.13c0.44,0.36,0.86,0.77,1.24,1.19c0.3,0.33,0.58,0.44,0.96,0.17
			c0.09-0.06,0.2-0.12,0.31-0.14c0.98-0.14,1.26-0.8,1.27-1.69c0-0.43,0.06-0.86,0.22-1.27c0.28-0.71,0.77-1.13,1.56-1.15
			c0.95-0.03,1.9,0.09,2.81,0.35c0.83,0.24,1.23,0.79,1.22,1.66c-0.01,0.57-0.06,1.15-0.11,1.72c-0.03,0.33,0.07,0.54,0.39,0.66
			c0.27,0.1,0.55,0.21,0.77,0.38c0.67,0.51,1.23,0.38,1.8-0.18c0.26-0.26,0.58-0.47,0.9-0.66c0.74-0.44,1.42-0.39,2.05,0.21
			c0.46,0.43,0.9,0.9,1.28,1.4c0.75,0.99,0.61,1.78-0.39,2.51c-0.28,0.2-0.56,0.4-0.85,0.59c-0.23,0.16-0.27,0.34-0.14,0.59
			c0.13,0.25,0.31,0.51,0.35,0.78c0.15,1.09,0.83,1.36,1.81,1.26c0.46-0.04,0.92,0.06,1.36,0.19c0.77,0.22,1.22,0.76,1.24,1.56
			c0.02,0.8,0.03,1.61-0.04,2.41c-0.12,1.37-0.83,1.92-2.2,1.78c-0.48-0.05-1.03-0.23-1.44-0.01c-0.39,0.21-0.28,0.85-0.54,1.21
			c-0.63,0.88-0.4,1.56,0.36,2.2c0.23,0.2,0.41,0.48,0.56,0.76c0.31,0.58,0.29,1.18-0.15,1.69c-0.59,0.7-1.22,1.38-1.92,1.98
			c-0.7,0.61-1.59,0.54-2.23-0.15c-0.35-0.38-0.67-0.79-0.98-1.2c-0.19-0.26-0.37-0.39-0.72-0.23c-0.63,0.29-1.3,0.45-1.99,0.54
			c-0.37,0.05-0.46,0.23-0.48,0.56c-0.03,0.57-0.08,1.15-0.15,1.72c-0.16,1.27-0.78,1.83-2.04,1.88c-0.84,0.03-1.67-0.06-2.49-0.16
			c-0.79-0.1-1.26-0.62-1.39-1.43C146.92,47.14,146.98,46.68,147,46.23z M155.76,35.11c0.02-1.46-0.54-2.7-1.51-3.75
			c-1.05-1.14-3.2-1.76-4.44-1.1c-2.09,1.11-3.73,2.65-3.74,5.25c-0.01,1.69,0.69,3.09,2.15,3.98c1.63,0.99,3.34,1,5,0.04
			C154.9,38.55,155.71,37.03,155.76,35.11z"/>
		<path class="st7" d="M433.29,419.58c0.24-1.13-0.01-1.89-1.22-2.34c-1.16-0.43-1.11-0.56-2.07,0.24c-0.18,0.15-0.35,0.3-0.54,0.43
			c-0.93,0.64-1.68,0.61-2.5-0.16c-0.65-0.61-1.3-1.23-1.83-1.94c-0.7-0.93-0.64-1.76,0.22-2.55c0.46-0.42,0.98-0.78,1.49-1.14
			c0.31-0.22,0.45-0.44,0.27-0.82c-0.26-0.57-0.15-1.34-0.59-1.75c-0.44-0.41-1.19-0.29-1.8-0.41c-1.63-0.32-2.1-0.85-2.04-2.48
			c0.03-0.73,0.09-1.45,0.19-2.17c0.13-1.03,0.72-1.57,1.77-1.68c0.56-0.06,1.13-0.04,1.68,0.07c0.5,0.11,0.73-0.09,0.85-0.55
			c0.07-0.29,0.16-0.59,0.32-0.83c0.53-0.75,0.32-1.32-0.3-1.88c-0.34-0.31-0.61-0.7-0.87-1.08c-0.6-0.86-0.6-1.64,0.03-2.47
			c0.67-0.86,1.49-1.59,2.32-2.29c0.61-0.51,1.37-0.44,2.09,0.15c0.51,0.42,0.98,0.88,1.43,1.37c0.34,0.37,0.67,0.51,1.11,0.2
			c0.11-0.07,0.23-0.14,0.36-0.16c1.13-0.17,1.45-0.91,1.45-1.94c0-0.49,0.07-0.99,0.25-1.46c0.32-0.81,0.89-1.3,1.79-1.32
			c1.1-0.03,2.18,0.1,3.23,0.4c0.96,0.28,1.42,0.9,1.4,1.9c-0.01,0.66-0.07,1.32-0.13,1.98c-0.04,0.38,0.08,0.62,0.45,0.76
			c0.31,0.11,0.63,0.24,0.89,0.43c0.77,0.58,1.42,0.44,2.07-0.21c0.3-0.3,0.67-0.54,1.04-0.76c0.85-0.51,1.63-0.45,2.36,0.24
			c0.53,0.5,1.03,1.03,1.47,1.61c0.86,1.14,0.7,2.04-0.44,2.88c-0.32,0.24-0.65,0.46-0.98,0.68c-0.27,0.18-0.31,0.39-0.16,0.67
			c0.15,0.29,0.36,0.59,0.4,0.9c0.17,1.26,0.95,1.56,2.07,1.45c0.53-0.05,1.06,0.07,1.56,0.21c0.89,0.25,1.4,0.87,1.42,1.79
			c0.02,0.92,0.04,1.85-0.04,2.77c-0.13,1.57-0.95,2.2-2.53,2.05c-0.56-0.05-1.18-0.26-1.65-0.01c-0.45,0.24-0.32,0.98-0.62,1.4
			c-0.72,1.01-0.47,1.79,0.41,2.53c0.27,0.23,0.47,0.56,0.64,0.87c0.35,0.67,0.33,1.35-0.17,1.95c-0.68,0.81-1.4,1.59-2.2,2.28
			c-0.81,0.7-1.82,0.62-2.56-0.18c-0.4-0.43-0.77-0.91-1.12-1.38c-0.22-0.29-0.43-0.45-0.82-0.27c-0.72,0.33-1.5,0.52-2.29,0.62
			c-0.43,0.05-0.53,0.26-0.55,0.65c-0.03,0.66-0.09,1.32-0.18,1.97c-0.19,1.46-0.89,2.1-2.35,2.16c-0.96,0.04-1.92-0.07-2.86-0.19
			c-0.9-0.12-1.45-0.72-1.6-1.64C433.2,420.62,433.27,420.1,433.29,419.58z M443.36,406.81c0.02-1.68-0.62-3.1-1.73-4.31
			c-1.2-1.31-3.68-2.02-5.1-1.27c-2.4,1.27-4.29,3.04-4.3,6.03c-0.01,1.94,0.79,3.55,2.47,4.57c1.87,1.13,3.84,1.15,5.74,0.05
			C442.36,410.76,443.29,409.02,443.36,406.81z"/>
		<g>
			<path class="st5" d="M458.36,112.89c0.65,1.1,0.78,2.28,0.83,3.45c0.2,4.51,0.42,9.01,0.42,13.52c0,9.51,0,19.03-0.02,28.54
				c0,3.37-0.46,6.74-0.33,10.11c0.08,2.12,0.12,4.24,0.06,6.37c-0.04,1.41-0.17,2.8-0.45,4.18c-0.65,3.18-2.5,4.91-5.71,5.27
				c-2.64,0.29-5.25,0.79-7.91,0.84c-2.66,0.04-5.31,0.03-7.94-0.4c-0.63-0.1-1.27-0.23-1.88-0.42c-2.58-0.83-3.91-2.56-4.1-5.27
				c-0.13-1.74-0.07-3.49,0.07-5.23c0.37-4.28,0.26-8.56,0.14-12.84c-0.1-3.49-0.03-6.98,0.18-10.46c0.08-1.4,0.11-2.8,0.04-4.21
				c-0.03-0.49-0.1-0.98-0.25-1.45c-0.53-1.72-1.01-2.1-2.82-2.24c-2.62-0.2-5.23-0.03-7.84,0.17c-1.02,0.08-2.05,0.12-3.07,0.07
				c-3.16-0.14-5.11-2.02-5.43-5.18c-0.2-1.97-0.16-3.94-0.15-5.91c0.04-5.35-0.13-10.69-0.36-16.03c-0.04-0.79-0.05-1.59-0.03-2.39
				c0.06-3.05,1.43-4.62,4.48-4.99c1.96-0.23,3.93-0.4,5.89-0.45c6.9-0.17,13.78-0.74,20.69-0.52c3.35,0.11,6.65,0.56,9.94,1.14
				C455.43,109.04,457.28,110.54,458.36,112.89z"/>
			<path class="st4" d="M425.62,130.47c1.31,0.9,2.5,1.71,3.68,2.53c0.31,0.22,0.62,0.45,0.87,0.73c0.48,0.53,0.5,1.33,0.11,1.9
				c-0.4,0.59-1.11,0.84-1.8,0.61c-0.25-0.08-0.49-0.22-0.7-0.37c-2.71-1.95-5.57-3.67-8.34-5.54c-0.13-0.08-0.25-0.17-0.38-0.25
				c-1.4-0.84-1.24-2.8,0.23-3.48c2.23-1.04,4.42-2.18,6.71-3.11c0.81-0.33,1.59-0.72,2.41-1.01c0.84-0.3,1.68,0.08,2.01,0.82
				c0.31,0.7,0.07,1.53-0.62,2c-0.25,0.17-0.53,0.29-0.81,0.42c-0.9,0.45-1.81,0.89-2.86,1.4c7.01,0.11,13.9,0.84,20.79,0.86
				c0.24-0.42,0.17-0.81,0.17-1.18c0.01-2.05,0.06-4.09,0.26-6.13c0.08-0.86,0.06-0.88-0.81-0.95c-2.68-0.21-5.37-0.41-8.05-0.61
				c-0.38-0.03-0.76-0.05-1.13-0.14c-0.84-0.23-1.28-0.89-1.19-1.7c0.08-0.74,0.64-1.29,1.43-1.39c0.22-0.03,0.45-0.03,0.68-0.01
				c3.18,0.24,6.36,0.46,9.53,0.74c2.44,0.22,3.06,0.95,2.83,3.39c-0.27,2.84-0.31,5.68-0.34,8.52c-0.02,1.8-0.71,2.55-2.52,2.66
				c-1.74,0.1-3.49,0.01-5.23-0.05c-5.19-0.19-10.37-0.65-15.57-0.73C426.58,130.34,426.17,130.26,425.62,130.47z"/>
		</g>
		<g>
			<path class="st5" d="M195.9,373.3c-5.46,3.11-11.29,4.4-17.62,3.04c-4.04-0.87-7.56-2.8-10.35-5.99
				c-3.48-3.98-4.9-8.64-4.52-13.83c0.26-3.64,1.48-6.94,3.36-9.99c0.18-0.29,0.39-0.58,0.63-0.83c0.89-0.95,2.29-1.12,3.4-0.44
				c1.16,0.72,1.67,2.12,1.2,3.4c-0.17,0.47-0.45,0.9-0.71,1.33c-1.36,2.31-2.22,4.79-2.35,7.52c-0.29,5.62,2.75,10.44,7.96,12.55
				c4.12,1.67,8.25,1.52,12.29,0.09c5.54-1.97,9.68-5.58,12.04-11.1c1.14-2.67,1.56-5.48,0.95-8.41c-0.93-4.52-3.61-7.59-7.8-9.32
				c-2.63-1.09-5.37-1.33-8.14-1.01c-0.5,0.06-0.99,0.15-1.5,0.08c-1.35-0.19-2.36-1.28-2.47-2.64c-0.1-1.3,0.7-2.49,1.94-2.83
				c1.2-0.32,2.44-0.36,3.68-0.37c4.72-0.05,9.14,1.12,12.94,4.14c5.68,4.51,7.88,10.5,6.92,17.55c-0.79,5.76-3.66,10.36-7.85,14.14
				C198.66,371.48,197.34,372.47,195.9,373.3z"/>
			<path class="st5" d="M179.44,340.39c1.19,2.06,2.43,4.09,3.76,6.07c0.47,0.69,0.93,1.39,1.31,2.12c0.71,1.35,0.36,2.86-0.8,3.64
				c-1.17,0.79-2.65,0.56-3.67-0.58c-0.18-0.21-0.34-0.44-0.49-0.67c-3.37-5.05-6.4-10.31-9.46-15.55
				c-0.24-0.42-0.43-0.85-0.55-1.31c-0.32-1.28,0.28-2.59,1.42-3.14c1.14-0.55,2.55-0.21,3.36,0.83c0.24,0.31,0.43,0.66,0.63,1
				C176.45,335.34,177.94,337.87,179.44,340.39z"/>
		</g>
		<g class="st0">
			<path class="st9" d="M418.41,72.5c-3.59-4.04-5.71-8.72-5.7-14.28c0.01-3.56,1.01-6.86,3.19-9.78c2.73-3.64,6.4-5.66,10.83-6.27
				c3.11-0.43,6.1,0.01,9,1.04c0.28,0.1,0.56,0.23,0.81,0.38c0.96,0.58,1.35,1.72,0.97,2.78c-0.4,1.1-1.49,1.79-2.65,1.61
				c-0.43-0.06-0.84-0.22-1.25-0.36c-2.18-0.73-4.43-1.01-6.74-0.64c-4.78,0.76-8.29,4.18-9.14,8.93
				c-0.67,3.76,0.19,7.21,2.12,10.35c2.64,4.31,6.42,7.15,11.49,8.15c2.45,0.48,4.89,0.33,7.25-0.7c3.64-1.59,5.74-4.39,6.46-8.23
				c0.45-2.41,0.16-4.75-0.6-7.03c-0.14-0.41-0.3-0.81-0.33-1.25c-0.08-1.17,0.65-2.22,1.78-2.55c1.07-0.31,2.22,0.15,2.72,1.13
				c0.48,0.95,0.74,1.99,0.97,3.03c0.88,3.96,0.69,7.89-1.17,11.62c-2.79,5.59-7.43,8.5-13.54,8.95c-4.98,0.36-9.37-1.23-13.3-4.08
				C420.44,74.5,419.37,73.56,418.41,72.5z"/>
			<path class="st10" d="M443.17,52.78c-1.53,1.37-3.01,2.77-4.43,4.25c-0.5,0.51-1,1.03-1.55,1.48c-1.01,0.84-2.34,0.81-3.21-0.02
				c-0.88-0.84-0.95-2.13-0.17-3.19c0.14-0.19,0.31-0.36,0.47-0.53c3.65-3.74,7.53-7.22,11.4-10.73c0.31-0.28,0.64-0.52,1.01-0.7
				c1.02-0.5,2.22-0.23,2.89,0.64c0.67,0.86,0.63,2.11-0.1,2.97c-0.22,0.26-0.48,0.48-0.73,0.71
				C446.88,49.37,445.02,51.08,443.17,52.78z"/>
		</g>
		<g class="st0">
			<path class="st10" d="M201.32,403.13c0.47,0.57,0.99,1.21,1.53,1.84c1.64,1.91,3.29,3.82,4.92,5.74c2.09,2.47,4.02,5.06,6.02,7.6
				c0.53,0.67,1.03,1.38,1.63,1.99c0.47,0.48,0.44,0.88,0.22,1.45c-0.78,2.03-1.69,4.01-2.52,6.02c-1.81,4.39-3.67,8.76-5.34,13.21
				c-0.21,0.55-0.55,0.7-1.09,0.75c-5.27,0.51-10.55,1.04-15.82,1.57c-1.68,0.17-3.36,0.34-5.04,0.5c-0.23,0.02-0.46,0.05-0.68,0.05
				c-0.32-0.01-0.47-0.2-0.39-0.52c0.05-0.19,0.13-0.38,0.2-0.57c5.07-13.01,10.13-26.03,15.2-39.04c0.07-0.19,0.14-0.38,0.23-0.55
				C200.64,402.73,200.87,402.7,201.32,403.13z"/>
			<path class="st9" d="M228.69,427.32c0.35,0.22,0.21,0.48,0.15,0.72c-0.37,1.47-0.78,2.93-1.28,4.37
				c-1.43,4.15-3.24,8.13-5.68,11.8c-0.26,0.38-0.48,0.46-0.91,0.33c-2.97-0.95-5.93-1.93-8.86-3c-0.56-0.2-0.57-0.22-0.36-0.8
				c0.81-2.32,1.84-4.57,2.77-6.84c1.36-3.31,2.63-6.65,4.09-9.92c0.07-0.16,0.14-0.31,0.19-0.48c0.1-0.32,0.28-0.38,0.59-0.25
				c0.5,0.21,1.01,0.39,1.52,0.59c2.55,1.02,5.05,2.16,7.52,3.35C228.54,427.23,228.64,427.29,228.69,427.32z"/>
			<path class="st9" d="M173.59,406.03c2.5-2.77,5.95-5.47,9.96-7.45c0.38-0.19,0.77-0.38,1.18-0.51c0.71-0.22,1.36,0.09,1.65,0.72
				c0.28,0.63,0.07,1.33-0.57,1.71c-0.54,0.32-1.13,0.55-1.69,0.85c-8.01,4.42-13.43,10.94-15.94,19.77
				c-0.97,3.41-1.13,6.89-0.31,10.37c0.36,1.54,0.95,3,1.76,4.36c0.09,0.15,0.19,0.29,0.26,0.44c0.38,0.75,0.2,1.5-0.43,1.89
				c-0.63,0.38-1.42,0.2-1.87-0.48c-0.32-0.47-0.6-0.97-0.86-1.48c-1.53-3-2.15-6.21-2.08-9.56c0.1-4.89,1.54-9.41,3.88-13.66
				C169.81,410.69,171.34,408.55,173.59,406.03z"/>
			<path class="st9" d="M179.67,412.72c2.44-2.69,4.98-4.6,8.07-5.72c0.32-0.12,0.64-0.25,0.99-0.26c0.66-0.02,1.19,0.36,1.36,0.96
				c0.17,0.6-0.08,1.21-0.65,1.53c-0.17,0.1-0.36,0.17-0.55,0.24c-2.93,1.01-5.3,2.81-7.26,5.16c-2.42,2.89-3.99,6.19-4.59,9.93
				c-0.42,2.62-0.3,5.2,0.69,7.69c0.22,0.56,0.51,1.08,0.79,1.62c0.24,0.46,0.32,0.92,0.07,1.4c-0.49,0.92-1.71,0.97-2.34,0.07
				c-0.39-0.56-0.68-1.19-0.95-1.83c-0.93-2.23-1.29-4.57-1.18-6.97C174.38,421.15,176.46,416.5,179.67,412.72z"/>
			<path class="st9" d="M184.78,417.97c0.67-0.74,1.44-1.33,2.23-1.9c0.72-0.52,1.5-0.39,1.97,0.26c0.43,0.59,0.29,1.36-0.35,1.9
				c-0.46,0.39-0.97,0.72-1.38,1.16c-2.27,2.44-3.09,5.35-2.71,8.62c0.03,0.28,0.12,0.56,0.13,0.85c0.05,0.74-0.39,1.32-1.05,1.46
				c-0.67,0.14-1.28-0.22-1.55-0.92c-0.05-0.13-0.09-0.27-0.11-0.41C181.2,424.88,182.31,421.25,184.78,417.97z"/>
		</g>
		<g>
			<path class="st5" d="M369.31,117.05c-0.72-0.16-1.53-0.35-2.34-0.52c-2.46-0.51-4.93-1.01-7.4-1.53
				c-3.16-0.67-6.28-1.54-9.41-2.33c-0.83-0.21-1.66-0.46-2.51-0.58c-0.66-0.09-0.89-0.42-1.06-1.01c-0.62-2.08-1.12-4.2-1.69-6.3
				c-1.26-4.58-2.46-9.18-3.85-13.72c-0.17-0.56,0.01-0.89,0.4-1.26c3.86-3.63,7.7-7.28,11.55-10.92c1.23-1.16,2.45-2.32,3.68-3.48
				c0.17-0.16,0.33-0.32,0.51-0.46c0.26-0.19,0.49-0.13,0.63,0.17c0.08,0.18,0.13,0.38,0.19,0.57c3.95,13.39,7.91,26.79,11.86,40.18
				c0.06,0.19,0.12,0.38,0.15,0.58C370.09,116.95,369.93,117.11,369.31,117.05z"/>
			<path class="st4" d="M332.86,114.66c-0.41,0.04-0.46-0.25-0.56-0.48c-0.61-1.39-1.17-2.8-1.66-4.24
				c-1.41-4.16-2.41-8.41-2.72-12.81c-0.03-0.46,0.09-0.66,0.52-0.81c2.93-1.06,5.87-2.1,8.84-3.05c0.57-0.18,0.58-0.17,0.78,0.41
				c0.78,2.34,1.34,4.73,1.99,7.11c0.94,3.45,1.99,6.87,2.84,10.35c0.04,0.17,0.08,0.34,0.14,0.5c0.12,0.31,0.01,0.48-0.31,0.56
				c-0.52,0.14-1.04,0.31-1.56,0.46c-2.64,0.75-5.31,1.38-8,1.95C333.03,114.63,332.92,114.65,332.86,114.66z"/>
			<path class="st4" d="M389.47,97.79c-0.28,3.72-1.36,7.97-3.32,11.99c-0.19,0.39-0.38,0.78-0.62,1.13
				c-0.43,0.61-1.13,0.77-1.74,0.44c-0.6-0.33-0.87-1.01-0.59-1.7c0.23-0.58,0.56-1.13,0.81-1.7c3.63-8.39,3.93-16.87,0.51-25.39
				c-1.32-3.29-3.32-6.14-6.1-8.39c-1.23-1-2.59-1.79-4.06-2.37c-0.16-0.06-0.32-0.12-0.48-0.19c-0.76-0.37-1.08-1.06-0.82-1.75
				c0.26-0.69,1-1.03,1.77-0.77c0.54,0.18,1.07,0.4,1.59,0.65c3.05,1.43,5.5,3.6,7.49,6.28c2.91,3.93,4.54,8.39,5.29,13.18
				C389.61,91.8,389.71,94.42,389.47,97.79z"/>
			<path class="st4" d="M380.57,96.22c-0.29,3.62-1.13,6.69-2.88,9.46c-0.18,0.29-0.36,0.59-0.63,0.81
				c-0.51,0.42-1.16,0.45-1.67,0.07c-0.5-0.37-0.68-1.01-0.43-1.61c0.08-0.18,0.18-0.36,0.29-0.53c1.7-2.59,2.47-5.47,2.59-8.52
				c0.15-3.77-0.63-7.34-2.45-10.67c-1.27-2.33-2.95-4.29-5.25-5.66c-0.51-0.31-1.07-0.54-1.61-0.8c-0.47-0.22-0.81-0.54-0.91-1.06
				c-0.18-1.02,0.76-1.81,1.81-1.49c0.66,0.2,1.27,0.52,1.87,0.86c2.1,1.2,3.81,2.83,5.2,4.8C379.59,86.31,380.8,91.26,380.57,96.22
				z"/>
			<path class="st4" d="M373.32,95.19c-0.08,1-0.33,1.94-0.6,2.87c-0.25,0.85-0.95,1.22-1.72,1c-0.7-0.2-1.06-0.9-0.89-1.72
				c0.12-0.59,0.33-1.17,0.38-1.76c0.3-3.32-0.83-6.12-3.13-8.48c-0.2-0.2-0.44-0.37-0.62-0.59c-0.49-0.55-0.5-1.28-0.06-1.8
				c0.44-0.52,1.15-0.61,1.79-0.22c0.12,0.07,0.24,0.16,0.34,0.26C371.92,87.54,373.26,91.09,373.32,95.19z"/>
		</g>
		<g>
			<path class="st5" d="M109.72,422.43c-6.92-1.53-13.73-3.83-20.61-5.89c-0.7-0.21-1.37-0.48-1.98-0.88
				c-1.16-0.76-1.74-1.82-1.66-3.22c0.06-1.09,0.2-2.17,0.44-3.23c1.27-5.66,2.75-11.27,4.47-16.82c1-3.22,1.86-6.48,2.79-9.72
				c0.38-1.33,0.94-2.58,1.78-3.7c1.02-1.38,2.35-1.97,4.06-1.79c1.92,0.2,3.8,0.58,5.64,1.13c4.87,1.45,9.81,2.62,14.71,3.92
				c5.08,1.35,10.12,2.85,15.13,4.46c2.38,0.77,4.8,1.41,7.22,2.04c0.95,0.25,1.86,0.6,2.63,1.25c1.06,0.89,1.54,1.98,1.26,3.37
				c-0.47,2.39-1.33,4.67-2.05,6.99c-0.42,1.35-0.88,2.69-1.28,4.04c-1.76,5.94-3.57,11.87-5.14,17.88
				c-0.35,1.34-0.81,2.63-1.49,3.84c-1.21,2.14-2.73,2.8-5.1,2.14c-1.92-0.54-3.82-1.15-5.74-1.69
				C119.83,425.17,114.85,423.73,109.72,422.43z"/>
			<path class="st4" d="M141.94,393.46c-0.12,0.56-0.58,0.9-1.1,1.19c-1.87,1.03-3.72,2.12-5.63,3.08
				c-4.5,2.27-9.03,4.48-13.55,6.72c-0.83,0.41-0.86,0.43-0.4,1.26c1.86,3.37,3.73,6.72,5.61,10.08c1.38,2.47,2.78,4.93,4.17,7.39
				c0.14,0.25,0.29,0.51,0.37,0.78c0.24,0.81-0.08,1.57-0.79,1.95c-0.65,0.36-1.45,0.24-1.99-0.33c-0.22-0.23-0.41-0.51-0.56-0.79
				c-3.29-5.97-6.8-11.82-9.98-17.85c-0.38-0.72-0.38-0.73-1.14-0.5c-0.9,0.27-1.81,0.52-2.77,0.52c-1.26-0.01-2.23-0.52-2.97-1.52
				c-0.45-0.61-0.45-0.6-1.19-0.25c-3.24,1.56-6.47,3.12-9.71,4.67c-2.32,1.11-4.69,2.12-7.08,3.1c-1.01,0.41-2.01,0.84-3.01,1.26
				c-0.2,0.08-0.4,0.18-0.6,0.24c-0.97,0.3-1.81-0.06-2.17-0.92c-0.33-0.8-0.04-1.67,0.8-2.12c0.76-0.41,1.56-0.77,2.37-1.08
				c6.06-2.36,11.88-5.24,17.71-8.1c0.78-0.38,0.81-0.42,0.3-1.19c-2.57-3.87-4.65-8.03-7.29-11.87c-1.77-2.57-3.17-5.37-4.79-8.04
				c-0.57-0.94-0.37-1.87,0.43-2.39c0.78-0.51,1.73-0.31,2.38,0.56c0.79,1.05,1.36,2.23,2,3.36c1.36,2.4,2.82,4.74,4.37,7.02
				c0.1,0.15,0.21,0.3,0.3,0.46c2.43,4.34,5.19,8.47,7.64,12.8c0.31,0.56,0.65,0.69,1.22,0.55c1.21-0.29,2.35-0.74,3.47-1.25
				c3.6-1.65,7.11-3.46,10.66-5.19c3.39-1.65,6.72-3.42,10.01-5.26c0.28-0.16,0.58-0.32,0.89-0.4
				C141.18,391.05,142.29,392.15,141.94,393.46z"/>
		</g>
		<g class="st0">
			<path class="st10" d="M148.7,312.29c-0.1,3.29-0.35,6.72-0.86,10.13c-0.28,1.85-0.74,3.66-1.39,5.42
				c-0.35,0.96-0.85,1.84-1.59,2.58c-1.33,1.33-2.98,1.73-4.78,1.64c-2.03-0.11-4.06-0.28-6.07-0.59c-2.62-0.4-5.24-0.86-7.86-1.28
				c-1.9-0.3-3.67-0.97-5.34-1.9c-1.77-0.99-2.39-2.62-2.49-4.51c-0.09-1.91,0.2-3.8,0.45-5.68c0.51-3.87,1.09-7.72,1.52-11.6
				c0.14-1.21,0.38-2.4,0.82-3.54c0.7-1.82,1.75-2.54,3.69-2.43c2.78,0.16,5.56,0.3,8.31,0.83c2.8,0.53,5.65,0.8,8.47,1.2
				c1.36,0.2,2.7,0.5,4,0.98c1.36,0.51,2.22,1.46,2.62,2.85C148.74,308.27,148.82,310.2,148.7,312.29z"/>
			<path class="st9" d="M131.7,310.03c0,1.47,0,1.48,1.36,1.69c0.74,0.12,1.5,0.16,2.24,0.29c0.55,0.09,0.83-0.09,1.03-0.62
				c0.45-1.18,1.16-2.2,2.09-3.06c1.18-1.09,2.58-1.67,4.2-1.64c1.71,0.03,3.22,1.37,3.57,3.11c0.31,1.53-0.5,2.97-2.11,3.7
				c-1.64,0.74-3.41,0.92-5.18,0.99c-1.13,0.05-1.14,0.04-1.35,1.15c-0.23,1.23-0.35,2.46-0.29,3.72c0.02,0.51,0.23,0.75,0.72,0.88
				c0.92,0.25,1.82,0.55,2.72,0.84c0.96,0.31,1.76,0.87,2.4,1.65c0.96,1.17,1.09,2.65,0.34,3.84c-0.8,1.28-2.14,1.8-3.67,1.41
				c-1.48-0.39-2.55-1.3-3.27-2.64c-0.46-0.87-0.82-1.79-1.05-2.75c-0.1-0.42-0.33-0.61-0.73-0.67c-1.17-0.18-2.33-0.35-3.5-0.55
				c-0.43-0.07-0.6,0.11-0.66,0.49c-0.07,0.42-0.13,0.85-0.25,1.25c-0.55,1.81-1.69,3.05-3.5,3.68c-0.98,0.34-1.81,0.05-2.58-0.52
				c-1.41-1.05-2.12-3.25-1.65-4.95c0.26-0.92,0.89-1.5,1.7-1.93c0.98-0.53,2.07-0.58,3.14-0.7c0.26-0.03,0.52-0.04,0.79-0.05
				c0.31-0.01,0.48-0.13,0.52-0.46c0.19-1.53,0.28-3.07,0.38-4.61c0.03-0.5-0.3-0.6-0.63-0.74c-1.3-0.58-2.49-1.33-3.52-2.31
				c-0.67-0.64-1.21-1.37-1.54-2.25c-0.86-2.33,0.82-4.41,2.8-4.75c2.58-0.44,4.45,0.79,5.06,3.33
				C131.55,307.95,131.73,309.02,131.7,310.03z M134.32,319.45c0.25,0.04,0.56,0.12,0.55-0.29c-0.02-1.45,0.15-2.87,0.4-4.29
				c0.06-0.32-0.05-0.48-0.39-0.52c-0.97-0.12-1.95-0.25-2.92-0.4c-0.31-0.05-0.5,0.01-0.53,0.37c-0.11,1.4-0.23,2.8-0.35,4.2
				c-0.03,0.32,0.09,0.49,0.41,0.54C132.44,319.18,133.38,319.32,134.32,319.45z M129.33,309.6c-0.08-0.88-0.15-1.93-0.61-2.89
				c-0.39-0.82-1.75-1.13-2.56-0.62c-0.72,0.45-0.79,1.26-0.13,2.13c0.76,1.01,1.79,1.7,2.92,2.25c0.24,0.12,0.37,0.05,0.38-0.22
				C129.34,310.09,129.33,309.93,129.33,309.6z M138.71,312.11c1.21-0.02,2.31-0.07,3.37-0.4c0.4-0.12,0.81-0.26,1.18-0.46
				c0.69-0.37,0.78-0.9,0.35-1.55c-0.32-0.48-0.75-0.67-1.33-0.64C140.79,309.13,139.31,310.35,138.71,312.11z M124.89,322.52
				c0.03,0.68,0.25,1.21,0.66,1.66c0.41,0.45,0.66,0.47,1.19,0.11c0.96-0.66,1.38-1.61,1.49-2.73c0.04-0.38-0.16-0.47-0.46-0.44
				c-0.74,0.08-1.48,0.18-2.2,0.42C125.05,321.71,124.88,322.08,124.89,322.52z M138,322.77c0.33,1.1,0.69,2,1.56,2.58
				c0.81,0.55,1.49,0.55,1.83,0.01c0.34-0.52,0.07-1.18-0.76-1.68C139.88,323.23,139.03,322.98,138,322.77z"/>
		</g>
		<g class="st0">
			<path class="st10" d="M95.09,63.21c-0.79-0.04-1.59-0.07-2.38-0.14c-2.43-0.21-4.04-1.48-4.84-3.79
				c-0.67-1.93-1.03-3.92-1.25-5.93c-0.34-3.16-0.72-6.31-0.85-9.49c-0.08-2.03,0.03-4.05,0.48-6.04c0.53-2.3,1.87-3.79,4.21-4.36
				c2.48-0.6,5-0.9,7.53-1.14c4.03-0.38,8.09-0.49,12.13-0.67c0.96-0.04,1.9,0.02,2.84,0.26c1.91,0.49,3.15,1.65,3.51,3.62
				c0.67,3.67,1.25,7.36,1.47,11.09c0.15,2.58,0.49,5.14,0.68,7.71c0.08,1.04,0.01,2.05-0.22,3.08c-0.44,1.97-1.68,3.11-3.61,3.49
				c-1.6,0.32-3.2,0.59-4.81,0.83c-3.69,0.55-7.37,1.18-11.09,1.52C97.62,63.38,96.36,63.36,95.09,63.21z"/>
			<path class="st9" d="M91.9,47.18c0.01-0.18,0.01-0.26,0.02-0.34c0.21-2.37,0.67-2.63,2.62-2.66c2.02-0.03,4.05-0.16,6.07-0.23
				c1.26-0.05,1.26-0.04,1.35-1.35c0.05-0.75,0.13-1.5,0.18-2.26c0.03-0.36,0.09-0.71,0.24-1.04c0.48-0.99,1.46-1.27,2.37-0.65
				c0.32,0.22,0.62,0.5,0.89,0.79c2.18,2.31,4.36,4.62,6.54,6.93c0.27,0.29,0.52,0.6,0.75,0.92c0.47,0.67,0.54,1.38,0.24,2.15
				c-0.33,0.87-0.85,1.62-1.45,2.31c-1.74,2.02-3.48,4.02-5.47,5.8c-0.15,0.13-0.28,0.28-0.44,0.4c-0.97,0.72-2.08,0.36-2.46-0.79
				c-0.23-0.69-0.16-1.42-0.17-2.13c-0.02-1.6-0.01-1.59-1.58-1.5c-2.02,0.12-4.02,0.45-6.03,0.7c-0.28,0.03-0.55,0.09-0.83,0.09
				c-1.23,0.02-1.94-0.49-2.23-1.7C92.08,50.8,91.89,48.95,91.9,47.18z"/>
		</g>
		<g class="st0">
			<path class="st11" d="M140.52,204.01c0,1.33,0,2.66,0,3.99c0,0.47-0.01,0.93-0.13,1.39c-0.31,1.12-1.35,1.82-2.56,1.73
				c-1.14-0.08-2.05-0.92-2.2-2.03c-0.03-0.2-0.03-0.4-0.03-0.6c-0.04-2.76-0.08-5.52-0.11-8.28c0-0.36,0-0.74,0.07-1.09
				c0.23-1.28,1.24-2.08,2.52-2.03c1.26,0.05,2.23,0.96,2.33,2.23c0.04,0.56,0.03,1.13,0.03,1.7c0,1,0,2,0,2.99
				C140.46,204.01,140.49,204.01,140.52,204.01z"/>
			<path class="st12" d="M143.37,196.27c-0.01-0.84,0.52-1.62,1.34-1.96c0.85-0.35,1.61-0.16,2.29,0.4c0.32,0.26,0.51,0.62,0.7,0.98
				c1.32,2.48,2.65,4.96,3.96,7.45c0.16,0.29,0.3,0.6,0.39,0.92c0.26,0.95-0.19,1.91-1.07,2.37c-0.86,0.45-1.87,0.3-2.55-0.39
				c-0.23-0.24-0.42-0.53-0.58-0.82c-1.36-2.54-2.71-5.08-4.07-7.62C143.57,197.18,143.39,196.75,143.37,196.27z"/>
			<path class="st13" d="M151.57,188.76c0.5,0.04,0.89,0.23,1.24,0.52c2.62,2.21,5.24,4.41,7.85,6.62c0.13,0.11,0.25,0.23,0.35,0.37
				c0.47,0.65,0.43,1.47-0.11,2.02c-0.5,0.52-1.31,0.63-1.98,0.25c-0.27-0.15-0.51-0.34-0.74-0.54c-2.41-2.03-4.82-4.06-7.23-6.1
				c-0.26-0.22-0.51-0.45-0.71-0.72c-0.36-0.51-0.38-1.06-0.07-1.6C150.47,189.04,150.98,188.79,151.57,188.76z"/>
			<path class="st13" d="M163.3,186.13c-3.29-0.28-6.57-0.55-9.86-0.83c-0.17-0.01-0.34-0.03-0.51-0.08
				c-0.74-0.2-1.12-0.72-1.03-1.4c0.08-0.62,0.55-1.04,1.26-1.1c0.27-0.02,0.55,0,0.82,0.03c3.25,0.27,6.5,0.55,9.75,0.83
				c0.38,0.03,0.76,0.07,1.12,0.18c0.61,0.18,0.96,0.73,0.91,1.3c-0.06,0.58-0.5,1.04-1.13,1.11c-0.44,0.05-0.89,0.01-1.33,0.01
				C163.3,186.16,163.3,186.14,163.3,186.13z"/>
			<path class="st14" d="M122.76,204.34c0.01-0.32,0.16-0.57,0.35-0.82c2.78-3.56,5.56-7.13,8.34-10.69
				c0.17-0.21,0.34-0.42,0.6-0.53c0.38-0.17,0.75-0.15,1.07,0.11c0.34,0.27,0.51,0.64,0.34,1.07c-0.1,0.24-0.25,0.48-0.41,0.69
				c-2.71,3.49-5.43,6.97-8.14,10.45c-0.16,0.21-0.35,0.42-0.57,0.57c-0.33,0.24-0.71,0.25-1.07,0.07
				C122.9,205.06,122.75,204.73,122.76,204.34z"/>
			<path class="st14" d="M127.94,188.28c0.46,0,0.76,0.19,0.95,0.55c0.18,0.33,0.13,0.64-0.07,0.95c-0.17,0.26-0.43,0.42-0.69,0.59
				c-3.59,2.28-7.19,4.56-10.78,6.84c-0.17,0.11-0.35,0.22-0.54,0.29c-0.52,0.2-1,0.06-1.28-0.33c-0.28-0.39-0.23-0.9,0.15-1.27
				c0.17-0.16,0.37-0.3,0.57-0.43c3.56-2.27,7.13-4.53,10.69-6.79C127.26,188.48,127.57,188.26,127.94,188.28z"/>
			<path class="st15" d="M119.23,183.5c1.92-0.08,3.85-0.16,5.77-0.23c0.24-0.01,0.48-0.03,0.72-0.01c0.62,0.06,1,0.41,1.03,0.93
				c0.03,0.51-0.3,0.91-0.9,1.05c-0.2,0.05-0.41,0.05-0.61,0.06c-4.19,0.19-8.38,0.38-12.58,0.58c-0.35,0.02-0.69,0.02-1.01-0.14
				c-0.37-0.18-0.59-0.46-0.59-0.87c0-0.45,0.23-0.79,0.66-0.91c0.42-0.12,0.88-0.16,1.32-0.18
				C115.1,183.67,117.16,183.59,119.23,183.5C119.23,183.5,119.23,183.5,119.23,183.5z"/>
			<path class="st15" d="M128.01,176.82c-0.03,0.78-0.65,1.22-1.31,1.04c-0.29-0.08-0.56-0.25-0.83-0.4
				c-3.51-1.97-7.01-3.94-10.52-5.92c-0.27-0.15-0.54-0.3-0.76-0.5c-0.37-0.34-0.43-0.91-0.15-1.28c0.3-0.38,0.71-0.54,1.18-0.37
				c0.29,0.1,0.56,0.26,0.83,0.41c3.51,1.97,7.01,3.94,10.52,5.92C127.48,176,128.03,176.26,128.01,176.82z"/>
			<path class="st16" d="M137.45,164.11c0-1.9,0-3.8,0-5.69c0-0.3,0-0.6,0.06-0.89c0.09-0.48,0.42-0.76,0.92-0.8
				c0.52-0.04,0.84,0.24,1.04,0.67c0.13,0.28,0.09,0.59,0.09,0.89c-0.02,3.93-0.04,7.86-0.06,11.79c0,0.3-0.01,0.6-0.11,0.89
				c-0.15,0.43-0.49,0.66-0.93,0.67c-0.49,0-0.87-0.24-0.98-0.73c-0.07-0.32-0.09-0.66-0.09-0.99c-0.01-1.93,0-3.86,0-5.79
				C137.4,164.11,137.42,164.11,137.45,164.11z"/>
			<path class="st17" d="M162.32,170.1c0.55,0.01,0.87,0.22,1.07,0.61c0.21,0.41,0.12,0.78-0.16,1.12c-0.22,0.27-0.54,0.4-0.85,0.54
				c-3.27,1.55-6.54,3.1-9.81,4.64c-0.25,0.12-0.5,0.23-0.76,0.29c-0.53,0.11-1-0.12-1.22-0.53c-0.24-0.45-0.12-1.01,0.32-1.34
				c0.24-0.18,0.53-0.31,0.8-0.44c3.21-1.52,6.42-3.03,9.63-4.54C161.68,170.28,162.01,170.09,162.32,170.1z"/>
			<path class="st16" d="M132.6,171.36c0,0.6-0.15,0.92-0.53,1.1c-0.41,0.18-0.8,0.14-1.15-0.15c-0.24-0.2-0.38-0.47-0.53-0.73
				c-1.89-3.29-3.77-6.58-5.66-9.87c-0.13-0.23-0.26-0.47-0.34-0.73c-0.14-0.47,0.04-0.86,0.46-1.11c0.44-0.26,0.88-0.18,1.22,0.16
				c0.21,0.21,0.36,0.48,0.51,0.74c1.88,3.26,3.75,6.52,5.62,9.78C132.4,170.86,132.6,171.17,132.6,171.36z"/>
			<path class="st17" d="M153.69,160.75c0.57,0.01,1.04,0.57,0.87,1.1c-0.09,0.28-0.26,0.54-0.44,0.78
				c-2.12,2.95-4.24,5.9-6.36,8.84c-0.16,0.22-0.32,0.44-0.52,0.61c-0.31,0.27-0.68,0.32-1.05,0.11c-0.41-0.23-0.54-0.6-0.41-1.03
				c0.08-0.25,0.23-0.48,0.39-0.7c2.14-2.98,4.28-5.95,6.42-8.92C152.86,161.16,153.13,160.77,153.69,160.75z"/>
		</g>
		<path class="st7" d="M163.47,125.06c-0.12-0.56-0.23-1.03-0.2-1.53c0.1-1.71,1.24-2.86,2.95-3.01c0.84-0.07,1.65,0.03,2.46,0.24
			c0.32,0.08,0.64,0.17,1.03,0.27c-0.09-0.5-0.39-0.83-0.57-1.2c-0.35-0.74-0.53-1.51-0.46-2.33c0.14-1.54,1.19-2.51,2.74-2.54
			c0.59-0.01,1.15,0.12,1.72,0.25c0.24,0.06,0.46,0.19,0.75,0.16c0.03-0.33-0.21-0.55-0.33-0.81c-0.82-1.72-0.25-3.67,1.35-4.52
			c0.74-0.4,1.54-0.41,2.34-0.3c0.83,0.11,1.6,0.44,2.33,0.84c3.12,1.68,6.05,3.66,8.88,5.79c4.61,3.48,9.11,7.1,13.56,10.77
			c0.52,0.43,0.93,0.93,1.24,1.53c0.43,0.8,0.52,1.63,0.22,2.48c-0.35,1.02-0.73,2.03-1.24,2.98c-2.19,4.1-4.71,8-7.45,11.76
			c-0.28,0.38-0.57,0.74-0.89,1.09c-0.93,1.04-2.11,1.48-3.49,1.36c-0.66-0.05-1.33-0.09-1.98-0.21c-3.32-0.61-6.69-0.76-10.05-1.05
			c-5.59-0.49-11.17-0.97-16.69-2.02c-2.28-0.43-4.53-0.99-6.75-1.69c-0.82-0.26-1.59-0.63-2.34-1.04c-0.54-0.3-0.88-0.74-1.05-1.32
			c-0.26-0.88-0.18-1.76,0.09-2.61c0.22-0.7,0.82-1.01,1.46-1.24c1.13-0.41,2.32-0.49,3.51-0.55c2.21-0.1,4.41-0.27,6.62-0.09
			c0.08,0.01,0.17,0.01,0.25,0.01c0.22-0.01,0.47,0,0.53-0.28c0.05-0.22-0.13-0.35-0.29-0.46c-0.51-0.33-1.01-0.68-1.54-0.98
			c-4.67-2.65-9.15-5.59-13.57-8.63c-1.49-1.02-2.85-2.18-4.1-3.49c-0.44-0.46-0.86-0.94-1.17-1.5c-0.55-0.98-0.67-2.01-0.09-3
			c0.57-0.98,1.53-1.3,2.62-1.28c1.09,0.01,2.13,0.32,3.14,0.69c2.63,0.96,5.1,2.25,7.54,3.63c2.02,1.14,4.03,2.31,6.04,3.46
			C162.85,124.82,163.06,125.01,163.47,125.06z"/>
		<g>
			<path class="st4" d="M291.58,67.36c-1.22-2.34-2.61-4.86-4.08-7.33c-0.58-0.98-1.08-2-1.45-3.09c-0.62-1.84-0.14-3.09,1.64-4.24
				c1.2-0.78,1.2-0.78,0.68-1.98c-1.1-2.57-1.98-5.21-2.45-8c-0.29-1.73-0.15-3.46,0.38-5.2c0.76-2.51,2.31-4.51,4.52-6.12
				c2.21-1.61,4.6-2.84,7.25-3.54c3.11-0.83,5.84-0.31,8.15,1.57c1.21,0.98,2.24,2.12,3,3.46c0.62,1.09,1.21,2.2,1.82,3.31
				c0.06,0.1,0.11,0.21,0.16,0.32c0.51,1.15,0.1,2.37-1.01,2.99c-1.1,0.62-2.41,0.35-3.09-0.7c-0.56-0.88-1.02-1.83-1.52-2.75
				c-0.62-1.14-1.35-2.19-2.35-3.05c-1.25-1.08-2.7-1.39-4.43-0.87c-2.31,0.69-4.4,1.8-6.2,3.39c-1.62,1.42-2.19,3.23-2.17,5.17
				c0.02,1.7,0.54,3.28,1.05,4.84c0.41,1.26,0.92,2.47,1.39,3.7c0.25,0.65,0.27,0.66,0.95,0.27c2.38-1.37,4.76-2.73,7.12-4.12
				c1.94-1.14,3.92-2.2,5.93-3.2c2.07-1.02,4.12-2.1,6.18-3.16c0.85-0.44,1.7-0.88,2.62-1.15c1.53-0.45,2.54-0.2,3.47,0.93
				c1.46,1.78,2.54,3.78,3.44,5.88c0.51,1.19,1.11,2.33,1.71,3.46c0.91,1.69,1.74,3.42,2.57,5.14c0.73,1.51,1.63,2.93,2.43,4.41
				c0.79,1.45,1.52,2.92,2.04,4.5c0.43,1.31,0.08,2.46-0.94,3.51c-0.71,0.74-1.53,1.36-2.41,1.86c-3.84,2.2-7.7,4.36-11.7,6.27
				c-3.46,1.65-6.9,3.34-10.41,4.86c-0.97,0.42-1.93,0.85-2.94,1.17c-1.62,0.51-3.01,0.2-4.21-0.75c-0.77-0.61-1.34-1.38-1.84-2.2
				C295.02,73.88,293.43,70.69,291.58,67.36z"/>
			<path class="st5" d="M308.48,63.02c-0.29-0.55-0.61-1.1-0.87-1.67c-0.14-0.31-0.31-0.47-0.71-0.41
				c-3.18,0.53-5.29-2.35-5.45-4.61c-0.15-2.19,1.57-5.18,4.82-5.95c3.89-0.92,6.69,2.15,6.55,5.08c-0.05,1.04-0.42,2.02-1.17,2.84
				c-0.43,0.46-0.41,0.81-0.16,1.3c0.63,1.22,1.17,2.49,1.58,3.81c0.16,0.49,0.22,1,0.12,1.53c-0.26,1.33-1.63,1.9-2.73,1.13
				c-0.53-0.37-0.88-0.91-1.2-1.45c-0.3-0.52-0.56-1.05-0.84-1.58C308.44,63.04,308.46,63.03,308.48,63.02z"/>
		</g>
		<path class="st7" d="M248.12,76.23c-0.48,0.28-0.64,0.71-0.88,1.07c-2.12,3.12-4.2,6.27-6.33,9.38c-1.36,1.99-1.53,1.99-3.62,0.77
			c-0.65-0.38-1.31-0.76-1.88-1.26c-0.9-0.8-0.99-1.25-0.37-2.27c0.72-1.19,1.48-2.35,2.24-3.52c1.62-2.5,3.26-4.99,5.01-7.4
			c0.16-0.22,0.39-0.4,0.35-0.73c-0.21-0.26-0.51-0.17-0.77-0.19c-3.17-0.18-6.35-0.34-9.52-0.52c-0.83-0.05-1.66-0.14-2.49-0.21
			c-0.55-0.05-1.02-0.21-1.19-0.8c-0.18-0.62,0.24-0.94,0.67-1.26c3.49-2.69,7.12-5.2,10.76-7.69c5.61-3.83,11.32-7.51,17.11-11.07
			c0.91-0.56,1.85-1.08,2.79-1.59c0.46-0.25,0.96-0.44,1.46-0.08c0.48,0.35,0.32,0.85,0.26,1.31c-0.69,5.8-1.61,11.56-2.6,17.31
			c-0.85,4.97-1.55,9.96-2.31,14.95c-0.26,1.69-0.5,3.38-0.75,5.07c-0.03,0.2-0.06,0.4-0.14,0.58c-0.18,0.44-0.51,0.46-0.86,0.21
			c-0.37-0.26-0.55-0.67-0.76-1.05c-1.78-3.19-3.56-6.38-5.34-9.57C248.67,77.18,248.39,76.71,248.12,76.23z"/>
		<path class="st7" d="M67.88,438.29c-0.31-0.4-0.71-0.49-1.05-0.67c-3.03-1.55-6.08-3.08-9.11-4.65c-1.93-1.01-1.95-1.15-1.09-3.16
			c0.27-0.63,0.53-1.26,0.93-1.82c0.62-0.89,1.01-1.03,1.99-0.58c1.14,0.52,2.27,1.07,3.4,1.62c2.42,1.18,4.83,2.38,7.19,3.68
			c0.21,0.12,0.4,0.31,0.69,0.23c0.21-0.21,0.1-0.47,0.09-0.71c-0.19-2.87-0.39-5.73-0.58-8.6c-0.05-0.75-0.05-1.51-0.08-2.26
			c-0.02-0.5,0.08-0.94,0.59-1.16c0.54-0.23,0.87,0.11,1.21,0.46c2.8,2.84,5.45,5.81,8.08,8.81c4.05,4.61,7.98,9.33,11.8,14.13
			c0.6,0.76,1.17,1.54,1.74,2.33c0.28,0.39,0.5,0.81,0.23,1.3c-0.26,0.47-0.72,0.38-1.15,0.38c-5.27,0.02-10.54-0.18-15.81-0.44
			c-4.55-0.22-9.11-0.3-13.66-0.44c-1.54-0.05-3.08-0.08-4.63-0.12c-0.18,0-0.36-0.01-0.53-0.06c-0.42-0.12-0.47-0.41-0.29-0.75
			c0.19-0.36,0.54-0.57,0.86-0.8c2.66-1.95,5.33-3.89,8-5.84C67.08,438.88,67.47,438.59,67.88,438.29z"/>
		<g>
			<path class="st8" d="M47.87,262.2c-1.26,1.84-2.13,3.87-2.91,5.95c-3.27,8.69-2.19,17.22,0.95,25.67c0.3,0.82,0.69,1.6,1,2.42
				c0.37,0.96,0.32,1.89-0.33,2.72c-1.11,1.43-3.19,1.4-4.28-0.07c-0.28-0.38-0.48-0.83-0.68-1.26c-2.52-5.69-3.85-11.67-4.09-17.88
				c-0.18-4.59,0.77-9.01,2.28-13.32c1.07-3.06,2.41-5.99,4.41-8.57c0.45-0.58,0.52-1.08,0.22-1.78c-1.7-3.95-2.04-8.07-1.41-12.31
				c0.79-5.32,2.64-10.28,5.08-15.05c1.71-3.34,3.53-6.62,5.39-9.88c0.28-0.49,0.57-0.98,1-1.37c0.9-0.81,2.13-0.97,3.15-0.39
				c1.02,0.58,1.51,1.71,1.28,2.91c-0.11,0.57-0.41,1.05-0.69,1.55c-1.96,3.45-3.9,6.92-5.69,10.46c-2.08,4.11-3.6,8.41-4.21,13
				c-0.34,2.53-0.25,5.03,0.58,7.54c0.47-0.06,0.7-0.4,0.98-0.63c1.95-1.69,4.01-3.22,6.28-4.45c3.37-1.83,6.96-2.6,10.82-2.51
				c7.24,0.17,13.92,8.34,10.06,16.86c-2.97,6.56-8.93,8.5-13.64,8.26c-5.78-0.29-10.6-2.59-14.46-6.9
				C48.66,262.83,48.43,262.37,47.87,262.2z M71.7,260.38c0.18-0.4,0.33-0.76,0.5-1.11c2.11-4.46-1.79-8.83-5.32-8.89
				c-1.58-0.03-3.13,0.04-4.66,0.45c-4.05,1.1-7.14,3.7-10.15,6.43c-0.39,0.36-0.42,0.69-0.07,1.12c0.75,0.9,1.54,1.77,2.42,2.56
				c2.97,2.67,6.49,3.87,10.44,3.67C67.88,264.47,70.27,263.13,71.7,260.38z"/>
			<path class="st4" d="M67.43,200.84c-1.68-0.93-3.36-1.84-5.03-2.78c-1.19-0.67-1.28-0.88-0.7-2.05c1.07-2.14,2.17-4.27,3.29-6.39
				c0.51-0.96,0.78-1.03,1.77-0.58c3.74,1.69,7.2,3.89,10.72,5.98c0.9,0.54,1.02,0.88,0.57,1.83c-1.06,2.25-2.24,4.43-3.49,6.58
				c-0.46,0.8-0.85,0.85-1.74,0.36C71.01,202.82,69.23,201.82,67.43,200.84C67.43,200.84,67.43,200.84,67.43,200.84z"/>
			<path class="st5" d="M67.58,199.33c2.29,1.25,4.67,2.37,6.83,3.85c0.91,0.62,1.74,1.31,2.39,2.2c1.17,1.59,1.3,3.28,0.43,5.04
				c-0.14,0.27-0.27,0.55-0.45,0.8c-2.14,3.14-3.77,6.58-5.69,9.85c-0.38,0.64-0.8,1.25-1.26,1.83c-0.95,1.2-2.16,1.7-3.68,1.52
				c-1.49-0.17-2.88-0.71-4.25-1.26c-4.43-1.8-8.46-4.32-12.45-6.89c-2.09-1.35-2.51-2.75-1.94-5.18c0.51-2.15,1.64-4.03,2.6-5.98
				c1.11-2.27,2.37-4.46,3.56-6.69c0.43-0.81,0.99-1.54,1.61-2.21c1.06-1.16,2.35-1.57,3.9-1.13c1.02,0.29,1.96,0.73,2.88,1.23
				C63.92,197.29,65.75,198.32,67.58,199.33z"/>
		</g>
		<g>
			<path class="st4" d="M84.31,317.17c-1.31-0.38-2.66-0.48-3.98-0.71c-1.95-0.35-3.92-0.6-5.87-0.98c-1.5-0.3-2.39-1.49-2.33-2.88
				c0.07-1.69,1.48-2.88,3.27-2.66c1.77,0.22,3.53,0.53,5.29,0.81c3.92,0.63,7.83,1.28,11.72,2.12c0.74,0.16,1.47,0.35,2.13,0.74
				c1.25,0.75,1.75,1.94,1.44,3.35c-0.16,0.71-0.48,1.34-0.91,1.93c-2.57,3.53-5.07,7.11-7.78,10.54c-0.66,0.84-1.26,1.73-1.89,2.6
				c-0.33,0.45-0.67,0.89-1.1,1.25c-1.22,1-2.83,0.98-3.9-0.07c-1.02-1-1.14-2.61-0.2-3.79c1.26-1.58,2.32-3.32,3.69-4.83
				c0.21-0.23,0.35-0.51,0.54-0.79c-0.41-0.16-0.66,0.08-0.93,0.2c-8.23,3.67-16.46,7.34-24.68,11.02
				c-0.29,0.13-0.59,0.23-0.87,0.39c-0.58,0.33-0.85,0.06-1.09-0.45c-0.56-1.18-1.16-2.35-1.73-3.53c-0.39-0.81-0.38-0.83,0.45-1.2
				c3.55-1.59,7.1-3.17,10.65-4.76c5.8-2.59,11.59-5.19,17.39-7.78C83.85,317.56,84.14,317.51,84.31,317.17z"/>
			<path class="st5" d="M67.29,347.51c0.64-0.3,1.29-0.59,1.93-0.89c9.38-4.41,18.76-8.82,28.15-13.21
				c1.37-0.64,1.08-0.72,1.75,0.68c0.53,1.11,0.98,2.26,1.5,3.37c0.19,0.41,0.16,0.67-0.28,0.84c-0.29,0.12-0.58,0.26-0.87,0.4
				c-8.85,4.15-17.69,8.29-26.53,12.45c-0.42,0.2-0.89,0.33-1.36,0.8c1.64,0.34,3.17,0.67,4.7,0.98c1.17,0.24,2.35,0.41,3.49,0.73
				c1.52,0.43,2.3,1.82,1.99,3.33c-0.28,1.36-1.5,2.24-3.01,2.17c-0.28-0.01-0.55-0.06-0.83-0.11c-3.31-0.65-6.62-1.31-9.93-1.96
				c-1.87-0.37-3.75-0.71-5.61-1.1c-1.14-0.24-2.23-0.58-2.96-1.61c-0.96-1.35-0.86-2.77-0.27-4.19c0.73-1.76,1.58-3.46,2.6-5.09
				c1.74-2.8,3.72-5.44,5.41-8.28c0.64-1.07,1.62-1.64,2.9-1.47c1.97,0.27,3.02,2.37,2.06,4.18c-0.82,1.55-1.81,2.99-2.79,4.43
				c-0.76,1.11-1.5,2.23-2.25,3.35C67.16,347.38,67.23,347.45,67.29,347.51z"/>
		</g>
		<g>
			<path class="st4" d="M42.33,77.88c0.96-10.48,10.1-18.12,20.55-17.17c10.44,0.95,18.1,10.16,17.14,20.6
				c-0.96,10.42-10.21,18.08-20.64,17.1C48.99,97.43,41.38,88.26,42.33,77.88z M48.74,78.46c-0.62,6.91,4.48,12.98,11.36,13.55
				c6.88,0.57,12.86-4.44,13.5-11.29c0.64-6.93-4.37-12.95-11.3-13.59C55.37,66.5,49.36,71.52,48.74,78.46z"/>
			<path class="st4" d="M36.59,123.67c-1.58-1.19-3.05-2.3-4.52-3.41c-0.18-0.13-0.33-0.29-0.47-0.42c0.09-0.47,0.38-0.76,0.6-1.09
				c4.4-6.52,8.81-13.03,13.21-19.55c0.3-0.45,0.6-0.9,0.95-1.3c1.11-1.25,2.82-1.49,4.15-0.62c1.39,0.9,1.84,2.63,1.09,4.15
				c-0.14,0.28-0.31,0.55-0.48,0.81c-4.65,6.89-9.31,13.78-13.97,20.66C37.01,123.12,36.84,123.33,36.59,123.67z"/>
		</g>
		<g>
			<path class="st4" d="M414.47,252.97c4.97,1.78,9.21,4.65,12.5,8.79c5.01,6.31,8.54,13.37,10.44,21.22
				c0.54,2.24,0.84,4.53,0.82,6.84c0,0.44-0.01,0.87-0.13,1.3c-0.37,1.26-1.46,2.11-2.72,2.09c-1.34-0.02-2.43-0.9-2.74-2.23
				c-0.05-0.23-0.09-0.47-0.09-0.71c0.02-4.45-1.19-8.63-2.86-12.7c-1.67-4.06-3.82-7.85-6.46-11.37c-3.74-4.98-8.73-7.84-14.84-8.9
				c-3.17-0.55-6.33-0.4-9.5-0.19c-0.43,0.03-0.87,0.07-1.31,0.03c-1.34-0.13-2.37-1.14-2.53-2.45c-0.16-1.32,0.59-2.53,1.87-2.98
				c0.37-0.13,0.77-0.2,1.16-0.23c3.96-0.33,7.92-0.51,11.86,0.34C411.48,252.15,413,252.48,414.47,252.97z"/>
			<path class="st4" d="M405.6,263.53c3.44,1.18,6.34,2.93,8.84,5.33c4.05,3.88,7.22,8.34,8.95,13.73c1.24,3.85,1.83,7.8,1.56,11.86
				c-0.03,0.44-0.07,0.87-0.2,1.29c-0.43,1.34-1.63,2.12-3.03,1.98c-1.28-0.13-2.31-1.18-2.45-2.53c-0.04-0.35-0.03-0.71-0.01-1.07
				c0.43-9.17-3.21-16.52-10.16-22.31c-2.46-2.05-5.37-3.19-8.58-3.54c-0.64-0.07-1.27-0.04-1.9,0.07c-0.35,0.06-0.7,0.14-1.06,0.18
				c-1.64,0.19-3-0.75-3.29-2.25c-0.29-1.52,0.59-2.87,2.22-3.3c1.39-0.36,2.81-0.54,4.25-0.4c0.71,0.07,1.43,0.13,2.12,0.28
				C403.84,263.04,404.8,263.32,405.6,263.53z"/>
			<path class="st4" d="M414.28,298.65c-0.4,1.18-1.49,1.94-2.73,1.92c-1.24-0.03-2.29-0.82-2.63-2.04
				c-0.12-0.42-0.14-0.86-0.19-1.29c-0.42-4.02-1.56-7.77-3.98-11.07c-1.56-2.13-3.47-3.79-6.07-4.54
				c-0.93-0.27-1.87-0.33-2.82-0.37c-0.63-0.03-1.27,0.01-1.89-0.15c-1.44-0.37-2.3-1.54-2.19-2.98c0.1-1.35,1.13-2.45,2.56-2.53
				c2.8-0.17,5.53,0.17,8.12,1.38c4.45,2.08,7.23,5.69,9.33,9.95c1.56,3.18,2.29,6.58,2.64,10.08
				C414.48,297.56,414.44,298.11,414.28,298.65z"/>
			<path class="st4" d="M397.47,288.19c3.61,1.26,5.69,5.06,4.79,8.37c-0.94,3.44-5.23,5.55-8.58,3.29
				c-1.07-0.72-1.99-1.58-2.67-2.67c-2.23-3.57-0.4-8.12,3.68-9.17C395.69,287.75,396.65,287.87,397.47,288.19z"/>
		</g>
		<g>
			<path class="st5" d="M424.02,374.21c-3.58,1.05-6.72,1.5-9.89,1.76c-1.82,0.15-3.63,0.31-5.45,0.27
				c-3.22-0.08-6.22-0.82-8.81-2.85c-2.05-1.61-3.34-3.78-4.47-6.06c-1.93-3.89-2.87-8.05-3.58-12.3
				c-0.78-4.73-1.28-9.48-1.03-14.28c0.25-4.78,1.11-9.41,2.78-13.91c1.93-5.21,5.74-8.48,10.62-10.72c0.89-0.41,1.85-0.58,2.8-0.7
				c2.34-0.31,4.7-0.33,7.04,0.02c1.39,0.21,2.7,0.64,3.96,1.29c3.81,1.97,6.92,4.68,9.4,8.24c3.35,4.81,5.66,10.05,7.4,15.61
				c1.19,3.83,2.24,7.68,2.89,11.63c0.47,2.87,0.71,5.76,0.27,8.64c-0.79,5.08-3.52,8.8-8.14,11.1
				C427.77,372.94,425.64,373.65,424.02,374.21z"/>
			<path class="st4" d="M412.31,337.07c0.88,0.8,0.91,1.77,1.12,2.66c0.96,4.21,1.89,8.43,2.83,12.65
				c1.35,6.07,2.69,12.13,4.04,18.2c0.15,0.66,0.32,1.32,0.47,1.98c0.06,0.28,0.12,0.56,0.12,0.84c0,0.7-0.41,1.22-1.02,1.32
				c-0.62,0.1-1.2-0.22-1.4-0.89c-0.28-0.92-0.49-1.87-0.7-2.81c-0.9-4.01-1.79-8.02-2.68-12.03c-1.4-6.27-2.8-12.55-4.18-18.83
				c-0.19-0.85-0.65-1.7-0.12-2.6c-0.46-0.23-0.84-0.03-1.2,0.04c-4.59,0.9-9.18,1.82-13.77,2.72c-0.8,0.16-1.59,0.43-2.42,0.45
				c-0.9,0.03-1.49-0.54-1.43-1.34c0.05-0.62,0.43-0.97,0.99-1.12c0.62-0.17,1.25-0.3,1.88-0.42c8.55-1.69,17.1-3.38,25.64-5.08
				c2.66-0.53,5.32-1.07,7.98-1.6c0.21-0.04,0.42-0.09,0.63-0.1c0.76-0.02,1.3,0.38,1.42,1.03c0.12,0.66-0.23,1.26-0.98,1.44
				c-1.35,0.33-2.72,0.59-4.09,0.86C421.14,335.32,416.83,336.17,412.31,337.07z"/>
			<path class="st8" d="M412.68,359.57c-0.31-1.43-0.61-2.86-0.93-4.29c-0.13-0.6-0.21-1.2-0.19-1.8c0.04-1.3,0.65-2.24,1.86-2.75
				c1.01-0.42,2.05-0.58,3.14-0.43c0.99,0.13,1.8,0.61,2.2,1.51c1.39,3.15,2.47,6.4,2.42,9.9c-0.03,2.44-1.57,3.96-3.92,4.09
				c-1.6,0.09-2.56-0.49-3.22-1.95C413.42,362.47,412.99,361.04,412.68,359.57z"/>
		</g>
		<g class="st0">
			<g class="st1">
				<path class="st5" d="M417.4,439.35c0.01,0.63-0.19,1.4-0.41,2.16c-1.13,4.07-2.57,8.01-5,11.52c-0.31,0.45-0.54,0.97-0.8,1.46
					c-0.64,1.21-1.49,2.25-2.56,3.1c-1.7,1.34-3.58,1.79-5.7,1.14c-3-0.93-5.98-1.89-8.84-3.18c-5.53-2.5-11.18-4.73-16.65-7.38
					c-2.15-1.04-4.24-2.18-6.28-3.4c-1.16-0.7-2.24-1.51-3.17-2.5c-1.32-1.4-1.73-2.99-1.37-4.92c0.46-2.45,1.38-4.71,2.41-6.94
					c1.26-2.74,2.49-5.49,3.75-8.23c0.31-0.68,0.65-1.36,1.04-2.01c1.28-2.13,2.97-2.84,5.35-2.15c2.17,0.63,4.31,1.36,6.45,2.11
					c2.74,0.96,5.39,2.11,8,3.37c2.86,1.38,5.76,2.67,8.72,3.83c2.04,0.8,3.97,1.8,5.86,2.9c1.48,0.85,2.96,1.69,4.44,2.54
					c1,0.58,1.97,1.19,2.83,1.97C416.78,435.92,417.43,437.4,417.4,439.35z"/>
			</g>
			<path class="st9" d="M393.37,438.16c1.6,0.68,3.2,1.36,4.79,2.05c3.82,1.67,7.63,3.36,11.44,5.04c0.25,0.11,0.51,0.23,0.74,0.37
				c0.82,0.52,1.1,1.37,0.74,2.15c-0.36,0.78-1.21,1.14-2.11,0.86c-0.34-0.11-0.66-0.27-0.98-0.42c-4.62-2.12-9.29-4.11-13.97-6.09
				c-0.25-0.1-0.48-0.29-0.88-0.22c0,0.4,0.28,0.69,0.45,1.01c0.51,0.94,1.05,1.87,1.58,2.8c0.22,0.39,0.36,0.8,0.35,1.25
				c-0.01,0.65-0.29,1.16-0.87,1.45c-0.62,0.31-1.25,0.26-1.79-0.18c-0.24-0.2-0.44-0.46-0.61-0.72c-1.53-2.46-2.82-5.06-4.22-7.6
				c-0.28-0.51-0.46-1.1-0.62-1.67c-0.28-1.03,0.08-1.9,1.04-2.41c0.45-0.24,0.95-0.4,1.44-0.56c2.92-0.95,5.97-1.3,8.99-1.75
				c1.31-0.2,2.22,0.6,2.13,1.74c-0.06,0.81-0.57,1.38-1.55,1.56c-1.48,0.27-2.98,0.47-4.47,0.71c-0.54,0.09-1.07,0.21-1.6,0.32
				C393.39,437.96,393.38,438.06,393.37,438.16z"/>
		</g>
	</g>
	<g>
		<path class="st8" d="M248.23,102.27c5.67,1.56,10.91,3.5,16.17,5.41c4.63,1.68,9.27,3.36,13.88,5.08
			c3.89,1.46,7.77,2.96,11.63,4.48c6.09,2.4,12.16,4.85,18.26,7.24c5.03,1.97,10.07,3.93,15.14,5.82c4.69,1.74,9.42,3.37,14.13,5.07
			c3.94,1.42,7.88,2.86,11.82,4.3c3.07,1.13,6.14,2.26,9.21,3.42c4.72,1.78,9.34,3.77,13.98,5.75c5.51,2.36,11.06,4.63,16.51,7.12
			c3.34,1.53,6.68,3.06,10.04,4.57c1.41,0.63,2.86,1.17,4.28,1.77c2.32,0.98,3.37,2.66,3.31,5.19c-0.04,1.91-0.53,3.72-1.21,5.47
			c-1.48,3.84-3.07,7.64-4.57,11.47c-4.55,11.61-9.99,22.83-14.91,34.28c-2.87,6.69-5.63,13.42-8.16,20.25
			c-3.44,9.28-7.34,18.36-11.62,27.28c-2.04,4.24-3.8,8.61-5.7,12.91c-1.96,4.44-3.89,8.89-6.13,13.2c-0.75,1.44-1.65,2.77-2.9,3.85
			c-1.52,1.3-3.26,1.93-5.26,1.92c-2.36-0.01-4.58-0.6-6.78-1.38c-4.86-1.74-9.47-4.03-14.02-6.43
			c-11.21-5.93-22.54-11.63-33.81-17.46c-7.84-4.06-15.48-8.46-23.26-12.63c-11.37-6.1-22.84-12.02-34.26-18.02
			c-6.51-3.42-12.9-7.05-19.34-10.61c-5.47-3.02-10.92-6.08-16.38-9.12c-1.29-0.72-2.49-1.55-3.67-2.45
			c-2.39-1.82-3.31-4.26-3.06-7.16c0.27-3.08,0.94-6.1,1.79-9.08c1.1-3.87,2.76-7.52,4.27-11.23c2.64-6.51,5.43-12.96,7.75-19.59
			c1.28-3.64,2.46-7.32,3.59-11.01c1.18-3.87,2.64-7.65,4.02-11.45c0.81-2.21,1.55-4.44,2.37-6.65c1.32-3.55,2.67-7.09,4.03-10.62
			c1.52-3.95,3.07-7.88,4.58-11.83c2.01-5.23,4.43-10.26,7.29-15.07c0.73-1.24,1.61-2.37,2.63-3.39c1.13-1.15,2.5-1.75,4.1-1.93
			c2.11-0.24,4.18-0.09,6.25,0.37C245.64,101.67,247.09,101.92,248.23,102.27z"/>
		<path class="st8" d="M248.88,351.5c-2.28-0.43-3.63-1.37-5.06-2.1c-3.43-1.77-6.61-3.98-10.05-5.75
			c-7.63-3.92-14.76-8.69-22.15-13.01c-7.52-4.4-14.91-9.01-22.43-13.41c-5.42-3.17-10.69-6.63-15.76-10.34
			c-7.15-5.24-14.51-10.16-21.84-15.14c-4.75-3.23-9.79-5.98-14.68-8.97c-4.3-2.63-8.44-5.5-12.56-8.4
			c-4.57-3.22-9.02-6.6-13.8-9.51c-2.32-1.42-4.64-2.85-7.01-4.17c-3.57-2-6.92-4.32-10.15-6.82c-4.31-3.32-8.74-6.49-13.11-9.72
			c-1.05-0.78-1.51-1.52-1.14-2.85c0.4-1.41,0.57-2.88,0.85-4.33c0.05-0.25,0.11-0.51,0.22-0.74c0.21-0.43,0.49-0.49,0.88-0.17
			c5.02,4.11,10.53,7.49,16.17,10.68c5.86,3.32,11.51,6.97,16.91,10.99c6.08,4.53,12.54,8.49,18.95,12.52
			c7.19,4.52,14.54,8.77,21.68,13.37c4.42,2.85,8.66,5.96,13.15,8.71c7.75,4.74,15.21,9.92,22.97,14.63
			c3.39,2.06,6.85,4.02,10.22,6.11c5.72,3.54,11.28,7.34,17,10.88c5.72,3.54,11.3,7.31,17,10.88c4.64,2.91,9.29,5.8,14.08,8.46
			c0.48,0.27,0.97,0.53,1.47,0.77c1.08,0.51,2.2,0.73,3.42,0.59c2.8-0.34,5.47-1.13,8.06-2.21c2.34-0.98,4.62-2.11,6.84-3.34
			c2.45-1.36,4.93-2.65,7.5-3.75c3.99-1.72,7.8-3.81,11.65-5.82c6.03-3.16,12.21-6.01,18.31-9.03c4.09-2.03,8.26-3.87,12.42-5.73
			c7.92-3.55,15.77-7.28,23.5-11.23c1.64-0.84,3.21-1.8,4.45-3.21c0.21-0.24,0.45-0.58,0.82-0.38c0.4,0.22,0.31,0.64,0.19,0.99
			c-0.47,1.39-0.96,2.78-1.46,4.16c-0.26,0.73-0.61,1.42-0.85,2.15c-0.3,0.89-0.87,1.48-1.69,1.93c-8.05,4.38-16.27,8.42-24.52,12.4
			c-8.59,4.14-17.12,8.37-25.52,12.88c-3.63,1.95-7.49,3.44-11.18,5.27c-4.55,2.26-9.14,4.42-13.64,6.77
			c-3.8,1.98-7.82,3.42-11.91,4.64C254.19,351.98,251.2,351.83,248.88,351.5z"/>
		<path class="st18" d="M191.12,217.2c1.62,0.35,3.09,0.93,4.46,1.75c2.85,1.7,5.92,2.95,8.94,4.29c3.46,1.53,6.76,3.42,10.11,5.17
			c17.08,8.91,34.14,17.84,51.21,26.76c15.18,7.94,30.37,15.87,45.55,23.81c9.22,4.82,18.44,9.64,27.66,14.46
			c1.63,0.85,3.25,1.7,4.88,2.55c0.82,0.42,1.57,0.95,2.29,1.53c0.26,0.21,0.49,0.44,0.69,0.71c0.82,1.08,0.81,1.57,0,2.66
			c-0.64,0.87-1.42,1.59-2.34,2.16c-0.85,0.52-1.7,1.03-2.6,1.46c-2.86,1.37-5.65,2.84-8.4,4.41c-2.66,1.52-5.46,2.73-8.24,3.99
			c-4.7,2.12-9.34,4.35-13.91,6.72c-4.87,2.52-9.84,4.82-14.84,7.09c-5.23,2.37-10.22,5.22-15.36,7.78
			c-6.55,3.26-13.07,6.59-19.81,9.48c-2.11,0.9-4.28,1.53-6.58,1.73c-1.7,0.15-3.28-0.21-4.84-0.85c-2.54-1.03-4.84-2.48-7.12-3.97
			c-7.8-5.13-15.78-9.99-23.68-14.97c-6.34-4-12.65-8.07-19.09-11.91c-5.12-3.05-10.08-6.35-15.1-9.55
			c-3.1-1.98-6.36-3.69-9.45-5.68c-3.62-2.33-7.08-4.88-10.77-7.11c-5.1-3.07-10.17-6.21-15.03-9.65
			c-6.04-4.28-12.63-7.68-18.73-11.84c-3.83-2.62-7.97-4.72-11.8-7.32c-1.19-0.81-2.35-1.64-3.52-2.48
			c-4.36-3.14-9.03-5.8-13.44-8.86c-5.05-3.49-10.32-6.66-15.5-9.94c-1.83-1.16-3.7-2.27-5.33-3.72c-0.51-0.45-0.93-0.93-0.99-1.65
			c-0.03-0.38,0-0.75,0.21-1.06c0.64-0.91,1.35-1.66,2.57-1.9c8.15-1.61,16.37-2.85,24.56-4.26c9.86-1.7,19.77-3.02,29.67-4.44
			c8.92-1.28,17.8-2.79,26.67-4.36c7.13-1.26,14.27-2.47,21.47-3.29C187.48,216.68,189.35,216.62,191.12,217.2z"/>
		<path class="st18" d="M249.25,101.92c5.28,1.23,10.38,3.03,15.46,4.88c6.4,2.32,12.78,4.68,19.17,7.02
			c6.01,2.2,11.98,4.49,17.9,6.93c5.44,2.23,10.91,4.41,16.46,6.36c5.48,1.93,10.92,3.99,16.36,6.02c4.68,1.75,9.36,3.52,14.03,5.33
			c5.28,2.05,10.53,4.17,15.81,6.21c4.49,1.74,8.97,3.53,13.44,5.32c5.7,2.28,11.35,4.7,16.86,7.41c2.57,1.27,5.24,2.33,7.72,3.78
			c1.15,0.67,2.18,1.48,3.17,2.38c1.24,1.13,1.68,2.52,1.69,4.15c0.02,2.33-0.61,4.5-1.4,6.65c-1.31,3.55-2.58,7.12-3.87,10.68
			c-1.38,3.81-3.15,7.44-4.8,11.14c-2.98,6.68-6.38,13.17-9.14,19.95c-1.68,4.12-3.62,8.13-5.27,12.26c-1.07,2.66-2.05,5.36-3.17,8
			c-2.82,6.63-5.36,13.38-8.21,19.99c-0.98,2.26-2.13,4.44-3.19,6.66c-1.52,3.15-2.75,6.42-4.12,9.63c-1.11,2.6-2.44,5.11-3.44,7.76
			c-1.3,3.44-2.81,6.79-4.51,10.05c-0.65,1.24-1.32,2.46-2.03,3.66c-2.79,4.67-6.19,5.89-11.54,4.62c-1.44-0.34-2.77-0.98-4.09-1.64
			c-3.78-1.89-7.41-4.06-11.09-6.14c-8.86-5.02-17.89-9.72-26.91-14.46c-6.48-3.4-12.92-6.86-19.36-10.34
			c-3.3-1.78-6.4-3.91-9.75-5.6c-7.29-3.67-14.42-7.64-21.6-11.52c-4.82-2.6-9.77-4.95-14.59-7.56c-4.36-2.36-8.62-4.92-12.92-7.39
			c-5.26-3.03-10.69-5.74-16.13-8.42c-2.44-1.2-4.89-2.39-7.33-3.59c-1.66-0.82-3.14-1.88-4.59-3.03c-2.52-2-3.56-4.6-3.39-7.75
			c0.08-1.43,0.27-2.85,0.58-4.26c0.96-4.35,2.04-8.67,3.53-12.87c2.55-7.17,4.77-14.46,7.78-21.46c1.16-2.7,2.02-5.53,2.92-8.33
			c1.35-4.21,2.99-8.3,4.75-12.35c1.84-4.21,3.42-8.53,5.03-12.84c2.37-6.33,4.76-12.67,7.57-18.83c1.66-3.65,3.11-7.38,4.61-11.1
			c0.68-1.68,1.51-3.27,2.59-4.72c2.63-3.53,6.17-4.85,10.45-4.3C243.58,100.64,246.42,101.27,249.25,101.92z M253.09,111.03
			c-0.79-0.19-1.58-0.37-2.36-0.57c-3.11-0.79-6.25-1.39-9.46-1.49c-1.11-0.04-2.23,0.02-3.21,0.61c-1.72,1.03-2.99,2.48-3.78,4.33
			c-0.58,1.35-1.14,2.71-1.7,4.07c-1.5,3.63-2.97,7.29-4.52,10.9c-2.86,6.69-5.93,13.29-8.52,20.1c-2.45,6.43-5,12.81-7.42,19.25
			c-2.56,6.81-5.08,13.64-7.35,20.57c-1.8,5.49-3.46,11.02-5.03,16.57c-0.19,0.67-0.37,1.35-0.51,2.03c-0.28,1.37,0,2.64,0.84,3.75
			c0.71,0.94,1.54,1.79,2.51,2.46c1.57,1.09,3.17,2.13,4.84,3.07c5.79,3.27,11.67,6.4,17.35,9.87c3.73,2.28,7.48,4.54,11.36,6.57
			c5.93,3.1,11.88,6.15,17.85,9.19c5.87,2.98,11.56,6.29,17.22,9.65c6.58,3.91,13.38,7.4,20.13,10.99
			c9.9,5.26,19.88,10.36,29.69,15.8c6.85,3.8,13.97,7.07,20.97,10.57c0.33,0.16,0.67,0.31,1.02,0.42c1.79,0.56,2.92,0.22,4.07-1.27
			c0.79-1.02,1.4-2.15,1.98-3.31c2.27-4.54,4.38-9.15,6.61-13.71c4.93-10.11,9.75-20.27,14.13-30.63c3.02-7.15,5.8-14.39,8.73-21.57
			c1.28-3.13,2.45-6.31,3.77-9.42c1.87-4.4,3.83-8.76,5.75-13.13c2.51-5.73,4.85-11.52,7.05-17.37c0.92-2.44,1.77-4.91,1.94-7.56
			c0.15-2.41-0.84-4.11-2.91-5.23c-5.51-2.98-11.27-5.41-17.13-7.59c-6.72-2.51-13.34-5.25-19.92-8.11
			c-3.57-1.55-7.17-3.06-10.8-4.48c-5.34-2.09-10.82-3.82-16.23-5.71c-6.42-2.25-12.73-4.8-18.99-7.46
			c-5.28-2.24-10.57-4.47-15.96-6.41c-7.58-2.73-15-5.87-22.43-8.95C266.28,115.16,259.82,112.73,253.09,111.03z"/>
		<path class="st8" d="M195.42,298.1c-0.35-0.19-0.8-0.42-1.25-0.68c-4.25-2.49-8.35-5.22-12.44-7.97c-4.85-3.26-9.97-6.09-15-9.06
			c-3.1-1.83-6.15-3.75-9.15-5.74c-0.77-0.51-1.53-1.02-2.37-1.4c-0.29-0.13-0.57-0.34-0.81-0.57c-0.68-0.65-0.56-1.21,0.32-1.59
			c0.2-0.09,0.42-0.15,0.63-0.2c5.43-1.29,10.82-2.81,16.33-3.75c2.18-0.37,4.3-0.97,6.45-1.48c1.37-0.33,2.51-0.16,3.76,0.57
			c8.89,5.18,17.58,10.69,26.24,16.24c2.88,1.84,5.81,3.6,8.72,5.4c0.28,0.17,0.57,0.34,0.83,0.55c0.66,0.52,0.62,0.95-0.17,1.29
			c-1.21,0.52-2.43,1.06-3.68,1.48c-2.17,0.72-4.28,1.58-6.36,2.51c-3.12,1.39-6.31,2.63-9.48,3.91c-0.48,0.19-0.97,0.34-1.46,0.49
			C196.21,298.19,195.88,298.2,195.42,298.1z"/>
		<path class="st8" d="M185.1,259.94c0.11-0.05,0.2-0.13,0.3-0.14c3.66-0.65,7.19-1.82,10.81-2.66c0.87-0.2,1.58-0.12,2.38,0.38
			c9.21,5.79,18.67,11.14,27.96,16.8c3.45,2.1,6.86,4.27,10.2,6.55c0.23,0.16,0.51,0.27,0.73,0.66c-1.87,0.78-3.6,1.81-5.5,2.5
			c-1.1,0.4-2.23,0.74-3.33,1.16c-0.58,0.22-1.03,0.12-1.55-0.18c-4.22-2.46-8.43-4.94-12.68-7.35
			c-7.51-4.26-14.72-9.02-22.12-13.47c-1.98-1.19-4.02-2.29-6.02-3.45C185.87,260.51,185.39,260.38,185.1,259.94z"/>
		<path class="st8" d="M231.94,287.71c0.01-0.14,0.1-0.21,0.2-0.24c2.13-0.72,4.09-1.82,6.14-2.72c0.84-0.37,1.7-0.9,2.57-0.92
			c0.89-0.03,1.6,0.8,2.34,1.31c3.9,2.63,8.03,4.89,11.87,7.6c0.26,0.19,0.52,0.38,0.78,0.57c-0.13,0.38-0.47,0.4-0.71,0.5
			c-2.26,0.96-4.54,1.9-6.8,2.88c-0.6,0.26-1.07,0.23-1.63-0.11c-4.73-2.9-9.47-5.75-14.3-8.48
			C232.24,287.99,231.99,287.95,231.94,287.71z"/>
		<path class="st8" d="M288.63,315.44c-0.42,0.27-0.97,0.34-1.49,0.46c-3.79,0.86-7.41,0.24-10.79-1.52
			c-3.71-1.93-7.29-4.11-10.82-6.36c-0.08-0.05-0.14-0.14-0.21-0.2c0.06-0.08,0.08-0.18,0.14-0.19c2.36-0.7,4.6-1.74,6.9-2.62
			c0.49-0.19,0.87-0.15,1.33,0.15c4.93,3.33,9.87,6.65,14.8,9.96C288.56,315.17,288.66,315.23,288.63,315.44z"/>
		<path class="st8" d="M295.04,302.11c0.16-0.3,0.47-0.35,0.73-0.46c2.21-1,4.44-1.96,6.64-3c0.52-0.24,0.86-0.17,1.3,0.1
			c3,1.79,5.93,3.69,8.88,5.56c0.61,0.39,1.28,0.7,1.83,1.23c-0.41,0.35-0.9,0.43-1.34,0.58c-2.29,0.8-4.58,1.61-6.74,2.73
			c-0.52,0.27-0.97,0.26-1.45-0.06c-3.21-2.14-6.42-4.28-9.63-6.43C295.17,302.29,295.11,302.19,295.04,302.11z"/>
		<path class="st8" d="M149.78,237.77c0.47-0.13,0.89-0.25,1.31-0.36c2.17-0.56,4.34-1.13,6.51-1.69c0.39-0.1,0.79-0.19,1.17-0.3
			c1.36-0.39,2.58-0.31,3.86,0.51c2.06,1.33,4.26,2.46,6.39,3.69c0.31,0.18,0.67,0.29,0.86,0.58c-0.01,0.24-0.18,0.26-0.31,0.3
			c-3.23,1-6.47,1.97-9.69,2.99c-0.65,0.21-1.15,0.13-1.74-0.25c-2.56-1.66-5.15-3.26-7.73-4.89
			C150.21,238.23,149.93,238.16,149.78,237.77z"/>
		<path class="st8" d="M252.34,287.02c1.11-0.43,1.98-0.73,2.81-1.1c1.35-0.59,2.68-1.19,4-1.83c0.44-0.21,0.8-0.25,1.23,0.01
			c3.44,2.11,6.88,4.21,10.27,6.28c0.04,0.26-0.06,0.36-0.2,0.42c-2.17,1.07-4.24,2.34-6.46,3.33c-0.41,0.18-0.75,0.36-1.21,0.04
			C259.38,291.82,256.08,289.3,252.34,287.02z"/>
		<path class="st8" d="M162.9,246.16c0.25-0.36,0.65-0.36,0.99-0.46c3.16-0.98,6.32-1.94,9.48-2.93c0.44-0.14,0.83-0.21,1.26,0.05
			c2.49,1.5,4.98,2.98,7.47,4.47c0.05,0.03,0.08,0.11,0.14,0.21c-0.31,0.28-0.72,0.34-1.09,0.45c-3.3,1.01-6.61,2-9.92,3
			c-0.41,0.12-0.74,0.14-1.14-0.11c-2.31-1.5-4.64-2.97-6.96-4.45C163.05,246.33,162.99,246.24,162.9,246.16z"/>
		<path class="st8" d="M269.34,302.56c-0.21,0.3-0.6,0.35-0.92,0.5c-2.04,0.94-4.24,1.42-6.33,2.23c-0.29,0.11-0.53,0.12-0.83-0.06
			c-3.3-1.98-6.61-3.95-9.91-5.93c-0.05-0.03-0.06-0.12-0.09-0.18c0.03-0.17,0.18-0.21,0.31-0.27c2.34-0.97,4.68-1.93,7.02-2.91
			c0.45-0.19,0.82-0.16,1.22,0.14c3,2.17,6.12,4.17,9.25,6.15C269.18,302.29,269.34,302.33,269.34,302.56z"/>
		<path class="st8" d="M174.43,253.57c0.21-0.37,0.54-0.36,0.81-0.44c3.42-0.98,6.84-1.97,10.18-3.21c0.37-0.14,0.69-0.18,1.04,0.05
			c2.25,1.45,4.5,2.89,6.75,4.33c-0.11,0.29-0.35,0.28-0.55,0.34c-3.72,1.15-7.57,1.78-11.33,2.76c-0.34,0.09-0.65,0.11-0.95-0.09
			C178.4,256.07,176.42,254.82,174.43,253.57z"/>
		<path class="st8" d="M283.16,275.63c-2.84,0.97-5.51,1.89-8.18,2.8c-0.29,0.1-0.55,0.11-0.84-0.06c-3.12-1.79-6.24-3.58-9.3-5.46
			c-0.03-0.02-0.03-0.06-0.06-0.11c0.13-0.27,0.41-0.23,0.64-0.27c2.71-0.47,5.43-0.94,8.14-1.39c0.4-0.07,0.79-0.11,1.18,0.08
			c2.7,1.32,5.41,2.63,8.03,4.12C282.86,275.39,282.94,275.46,283.16,275.63z"/>
		<path class="st8" d="M266.6,296.55c2.38-1.25,4.71-2.57,7.13-3.71c0.28-0.13,0.52-0.17,0.82,0.02c2.31,1.48,4.64,2.93,6.94,4.39
			c-0.05,0.16-0.05,0.25-0.1,0.28c-2.11,1.19-4.23,2.36-6.33,3.57c-0.66,0.38-1.17,0.34-1.81-0.08c-2.05-1.36-4.14-2.65-6.21-3.97
			C266.89,296.94,266.72,296.87,266.6,296.55z"/>
		<path class="st8" d="M268.94,268.55c-2.83,0.51-5.47,1-8.07,1.65c-0.3,0.08-0.59,0.05-0.85-0.11c-3.08-1.87-6.15-3.74-9.21-5.6
			c0.09-0.34,0.33-0.35,0.53-0.41c1.83-0.56,3.66-1.11,5.49-1.66c0.39-0.12,0.75-0.19,1.16,0.05c3.46,2.03,6.96,3.97,10.55,5.75
			C268.64,268.27,268.71,268.36,268.94,268.55z"/>
		<path class="st8" d="M156.16,232.73c-0.7,0.19-1.4,0.4-2.1,0.57c-2.6,0.65-5.21,1.27-7.8,1.97c-0.75,0.2-1.33,0.07-1.94-0.37
			c-1.01-0.74-2.04-1.46-2.85-2.42c-1.11-1.32-0.78-2.53,0.86-3.03c1.76-0.54,3.57-0.88,5.37-1.23c0.35-0.07,0.66,0,0.96,0.16
			c0.33,0.17,0.65,0.34,0.97,0.52c2.18,1.2,4.36,2.41,6.55,3.61C156.17,232.58,156.16,232.66,156.16,232.73z"/>
		<path class="st8" d="M295.15,282.57c-1.9,0.69-3.72,1.36-5.56,2c-0.93,0.32-1.86,0.92-2.83,0.81c-0.96-0.11-1.76-0.86-2.63-1.33
			c-1.86-1.03-3.71-2.08-5.55-3.11c-0.01-0.36,0.26-0.37,0.44-0.43c2.46-0.86,4.93-1.7,7.43-2.43c0.49-0.14,0.91-0.14,1.36,0.12
			c2.35,1.35,4.72,2.69,7.08,4.04C294.97,282.26,295,282.35,295.15,282.57z"/>
		<path class="st8" d="M286.77,309.99c0.69-0.47,1.31-0.68,1.91-0.93c2.07-0.87,4.18-1.64,6.17-2.67c0.51-0.26,0.92-0.28,1.42,0.05
			c1.55,1.05,3.14,2.05,4.7,3.08c0.18,0.12,0.37,0.25,0.52,0.41c0.32,0.35,0.26,0.65-0.16,0.89c-0.13,0.07-0.27,0.12-0.41,0.17
			c-2.36,0.94-4.72,1.86-7.07,2.82c-0.56,0.23-1,0.22-1.53-0.12C290.51,312.52,288.68,311.37,286.77,309.99z"/>
		<path class="st8" d="M277.38,303.58c2.38-1.48,4.75-2.74,7.14-3.95c0.3-0.15,0.56-0.13,0.83,0.03c2.28,1.33,4.5,2.76,6.78,4.26
			c-0.32,0.39-0.71,0.49-1.06,0.63c-2.35,0.95-4.71,1.9-7,2.99c-0.35,0.17-0.63,0.26-1.01-0.01c-1.78-1.23-3.59-2.43-5.39-3.64
			C277.59,303.84,277.53,303.75,277.38,303.58z"/>
		<path class="st8" d="M170.12,229.33c-2.09,0.69-4.17,1.28-6.19,2.07c-1.36,0.53-2.46,0.35-3.68-0.38
			c-2.01-1.21-4.12-2.27-6.18-3.39c-0.25-0.13-0.55-0.2-0.67-0.55c0.13-0.05,0.26-0.13,0.4-0.16c2.95-0.6,5.87-1.35,8.86-1.78
			c0.54-0.08,0.98-0.01,1.45,0.29c1.77,1.12,3.57,2.19,5.35,3.28C169.69,228.83,169.96,228.89,170.12,229.33z"/>
		<path class="st8" d="M226.45,259.8c1.87-0.44,3.51-0.69,5.06-1.21c1.77-0.59,3.19-0.27,4.7,0.79c2.1,1.47,4.36,2.72,6.55,4.06
			c0.24,0.15,0.53,0.24,0.73,0.62c-0.69,0.18-1.36,0.35-2.02,0.54c-1.38,0.39-2.76,0.78-4.13,1.2c-0.42,0.13-0.77,0.12-1.14-0.12
			c-3-1.92-6.11-3.66-9.17-5.47C226.9,260.12,226.79,260.04,226.45,259.8z"/>
		<path class="st8" d="M229.8,255.47c-0.03,0.05-0.04,0.11-0.07,0.11c-2.35,0.6-4.7,1.18-7.05,1.78c-0.31,0.08-0.57-0.01-0.84-0.16
			c-2.78-1.59-5.53-3.21-8.24-4.91c-0.12-0.07-0.21-0.2-0.41-0.39c1.15-0.16,2.19-0.31,3.23-0.45c1.68-0.22,3.36-0.41,5.03-0.63
			c0.38-0.05,0.71-0.04,1.05,0.17c2.35,1.43,4.72,2.85,7.08,4.28C229.66,255.32,229.73,255.41,229.8,255.47z"/>
		<path class="st8" d="M256.62,271.95c-1.15,0.43-2.19,0.63-3.22,0.88c-1.11,0.27-2.22,0.52-3.33,0.78
			c-0.36,0.08-0.7,0.14-1.06-0.08c-2.75-1.7-5.51-3.38-8.3-5.09c0.14-0.32,0.42-0.33,0.63-0.4c1.93-0.6,3.92-1.01,5.89-1.44
			c0.36-0.08,0.69-0.08,1.05,0.14c2.65,1.65,5.32,3.27,7.98,4.91C256.36,271.71,256.44,271.79,256.62,271.95z"/>
		<path class="st8" d="M177.37,240.59c0.12-0.34,0.38-0.33,0.57-0.4c1.92-0.64,3.84-1.26,5.75-1.92c0.6-0.21,1.09-0.17,1.64,0.19
			c2.21,1.45,4.45,2.85,6.68,4.28c0.18,0.11,0.35,0.25,0.5,0.36c-0.01,0.33-0.25,0.29-0.4,0.33c-2.06,0.54-4.13,1.06-6.19,1.6
			c-0.52,0.14-0.97,0.15-1.46-0.15C182.12,243.44,179.76,242.03,177.37,240.59z"/>
		<path class="st8" d="M253.32,259.97c-0.57,0.32-1.19,0.42-1.78,0.62c-1.08,0.36-2.2,0.63-3.24,1.07c-0.95,0.4-1.71,0.3-2.57-0.24
			c-2.32-1.48-4.7-2.88-7.05-4.32c-0.31-0.19-0.61-0.39-0.91-0.59c0.16-0.37,0.5-0.34,0.76-0.42c1.8-0.54,3.66-0.8,5.49-1.23
			c0.27-0.06,0.5-0.03,0.74,0.1c2.78,1.58,5.57,3.15,8.35,4.73C253.19,259.73,253.23,259.85,253.32,259.97z"/>
		<path class="st8" d="M222.18,267.72c0.51-0.28,1.06-0.34,1.58-0.48c1.81-0.46,3.63-0.91,5.44-1.38c0.45-0.11,0.85-0.13,1.26,0.13
			c2.18,1.35,4.36,2.7,6.55,4.05c0.05,0.03,0.08,0.11,0.12,0.17c-0.22,0.35-0.63,0.35-0.96,0.46c-1.84,0.63-3.69,1.23-5.53,1.85
			c-0.29,0.1-0.52,0.17-0.82-0.02c-2.47-1.51-4.95-3-7.42-4.51C222.31,267.94,222.27,267.83,222.18,267.72z"/>
		<path class="st8" d="M223.94,247.91c1.38-0.34,2.68-0.57,3.92-1c1.55-0.53,2.84-0.27,4.21,0.64c2.23,1.48,4.6,2.75,6.91,4.11
			c0.28,0.16,0.55,0.34,0.82,0.5c-0.13,0.36-0.44,0.31-0.67,0.38c-1.56,0.44-3.12,0.86-4.67,1.3c-0.45,0.13-0.83,0.1-1.24-0.16
			c-2.93-1.83-5.85-3.67-8.85-5.38C224.25,248.23,224.16,248.11,223.94,247.91z"/>
		<path class="st8" d="M225.76,244.08c-1.87,0.46-3.75,0.94-5.6,1.53c-0.26,0.08-0.51,0.06-0.74-0.07
			c-2.95-1.62-5.91-3.24-8.82-4.84c0-0.29,0.13-0.35,0.28-0.39c1.81-0.49,3.57-1.13,5.4-1.53c0.43-0.09,0.83-0.15,1.27,0.1
			c2.72,1.53,5.42,3.09,8.04,4.78C225.67,243.72,225.77,243.77,225.76,244.08z"/>
		<path class="st8" d="M285.91,296.2c0.17-0.16,0.23-0.26,0.32-0.3c1.98-1.05,3.96-2.08,5.93-3.15c0.36-0.19,0.65-0.25,1.02-0.04
			c1.97,1.13,3.95,2.25,5.93,3.37c0.09,0.05,0.19,0.1,0.19,0.25c-0.18,0.3-0.54,0.34-0.83,0.47c-2.16,1.01-4.38,1.9-6.46,3.06
			c-0.28,0.15-0.47,0.1-0.7-0.05C289.55,298.62,287.78,297.45,285.91,296.2z"/>
		<path class="st8" d="M166.25,234.27c0.35-0.42,0.74-0.45,1.07-0.56c2.01-0.71,4.05-1.33,6.1-1.92c0.39-0.11,0.76-0.2,1.16,0.04
			c2.03,1.26,4.07,2.49,6.08,3.72c-0.02,0.37-0.29,0.35-0.47,0.41c-2.04,0.73-4.09,1.44-6.13,2.17c-0.4,0.14-0.74,0.18-1.14-0.05
			C170.73,236.81,168.53,235.57,166.25,234.27z"/>
		<path class="st8" d="M290.76,287.67c0.79-0.28,1.33-0.48,1.87-0.68c1.89-0.7,3.79-1.38,5.68-2.1c0.49-0.19,0.88-0.15,1.33,0.15
			c1.71,1.13,3.45,2.23,5.17,3.34c0.12,0.08,0.27,0.13,0.27,0.34c-0.1,0.26-0.39,0.25-0.62,0.32c-2.08,0.71-4.17,1.42-6.25,2.12
			c-0.34,0.12-0.66,0.25-1.05,0.04C295.13,290.06,293.07,288.94,290.76,287.67z"/>
		<path class="st8" d="M188.89,247.69c1.32-0.49,2.43-0.7,3.53-0.96c1.21-0.29,2.43-0.56,3.64-0.85c0.41-0.1,0.77-0.12,1.16,0.12
			c2.08,1.31,4.17,2.6,6.25,3.91c0.06,0.04,0.09,0.1,0.14,0.16c-0.1,0.18-0.28,0.22-0.46,0.27c-2.17,0.56-4.34,1.11-6.5,1.68
			c-0.38,0.1-0.71,0.09-1.05-0.12C193.43,250.53,191.25,249.17,188.89,247.69z"/>
		<path class="st8" d="M188.46,236.4c1.53-0.41,3.11-0.53,4.63-0.92c1.62-0.41,2.94-0.08,4.3,0.85c2.02,1.39,4.16,2.61,6.25,3.91
			c-0.22,0.44-0.59,0.37-0.89,0.4c-1.82,0.23-3.62,0.59-5.42,0.97c-0.49,0.1-0.91,0.08-1.35-0.21c-2.37-1.54-4.76-3.04-7.15-4.56
			C188.67,236.74,188.53,236.63,188.46,236.4z"/>
		<path class="st8" d="M216.92,248.07c-0.97,0.13-1.83,0.26-2.7,0.37c-1.53,0.19-3.06,0.39-4.56,0.78c-0.39,0.1-0.76,0.16-1.16-0.09
			c-2.49-1.55-5-3.09-7.49-4.62c0.11-0.45,0.47-0.38,0.73-0.42c1.99-0.33,4-0.56,5.98-0.99c0.31-0.07,0.58-0.01,0.84,0.15
			c2.62,1.57,5.32,2.97,7.99,4.45C216.66,247.77,216.74,247.9,216.92,248.07z"/>
		<path class="st8" d="M253.61,276.17c2.31-0.6,4.5-1.16,6.69-1.73c0.31-0.08,0.56-0.02,0.84,0.14c2.36,1.4,4.73,2.79,7.07,4.17
			c-0.03,0.28-0.23,0.32-0.4,0.37c-1.86,0.57-3.72,1.13-5.58,1.7c-0.44,0.14-0.83,0.13-1.25-0.12c-2.29-1.38-4.6-2.74-6.9-4.11
			C253.95,276.5,253.83,276.36,253.61,276.17z"/>
		<path class="st8" d="M312.35,299.37c0.95-0.27,1.9-0.53,2.85-0.81c1.3-0.39,2.61-0.77,3.9-1.19c0.53-0.17,0.96-0.13,1.45,0.17
			c1.41,0.86,2.86,1.65,4.29,2.49c0.87,0.51,0.88,1.02,0.03,1.54c-0.34,0.21-0.72,0.38-1.09,0.52c-1.51,0.57-3.03,1.12-4.54,1.7
			c-0.37,0.14-0.66,0.15-1.01-0.1c-1.94-1.38-3.81-2.86-5.87-4.06C312.35,299.54,312.35,299.46,312.35,299.37z"/>
		<path class="st8" d="M214.58,257c-0.88,0.23-1.75,0.47-2.63,0.7c-1.38,0.37-2.77,0.74-4.15,1.1c-0.31,0.08-0.61,0.18-0.95-0.02
			c-2.2-1.31-4.4-2.63-6.49-4.03c-0.03-0.28,0.13-0.31,0.27-0.35c1.99-0.53,3.98-1.03,5.96-1.58c0.77-0.21,1.47-0.1,2.11,0.29
			c1.97,1.2,3.93,2.43,5.89,3.65C214.59,256.84,214.59,256.92,214.58,257z"/>
		<path class="st8" d="M275.96,289.7c2.09-0.9,4.14-1.79,6.2-2.68c0.26-0.11,0.48-0.06,0.73,0.07c1.96,1.09,3.93,2.16,5.89,3.24
			c0.09,0.05,0.15,0.15,0.26,0.25c-0.42,0.39-0.92,0.63-1.4,0.88c-1.47,0.76-2.95,1.49-4.43,2.25c-0.38,0.19-0.72,0.31-1.13,0.05
			c-1.95-1.25-3.91-2.48-5.86-3.73C276.14,289.99,276.09,289.87,275.96,289.7z"/>
		<path class="st8" d="M301.4,293.58c2.11-0.73,4.01-1.31,5.85-2.05c1.27-0.51,2.31-0.5,3.47,0.31c1.32,0.92,2.8,1.62,4.2,2.43
			c0.28,0.16,0.59,0.27,0.8,0.56c-0.15,0.33-0.48,0.31-0.74,0.39c-2.15,0.64-4.31,1.24-6.45,1.9c-0.58,0.18-1.02,0.12-1.54-0.2
			C305.21,295.82,303.4,294.77,301.4,293.58z"/>
		<path class="st8" d="M212.58,236.36c-1.49,0.55-2.99,0.79-4.4,1.28c-1.4,0.49-2.47,0.18-3.64-0.64c-1.86-1.31-3.85-2.44-5.78-3.64
			c-0.27-0.17-0.54-0.34-0.89-0.57c0.91-0.55,1.87-0.71,2.7-1.15c1.26-0.66,2.34-0.51,3.6,0.17c2.55,1.38,5.19,2.6,7.73,4.01
			C212.11,235.94,212.36,236.02,212.58,236.36z"/>
		<path class="st8" d="M225.6,263.29c-0.38,0.29-0.83,0.3-1.25,0.42c-1.95,0.53-3.9,1.05-5.85,1.59c-0.26,0.07-0.47,0.13-0.73-0.02
			c-2.1-1.26-4.21-2.51-6.31-3.77c0.1-0.41,0.4-0.38,0.62-0.44c2.05-0.58,4.11-1.13,6.16-1.72c0.35-0.1,0.64-0.09,0.95,0.09
			c2.06,1.2,4.12,2.4,6.18,3.61C225.46,263.1,225.52,263.2,225.6,263.29z"/>
		<path class="st8" d="M256.42,281.8c-0.93,0.41-1.62,0.74-2.33,1.03c-1.53,0.63-3.08,1.22-4.61,1.85
			c-0.36,0.15-0.65,0.21-1.02-0.04c-1.71-1.14-3.45-2.25-5.15-3.35c0.04-0.27,0.22-0.32,0.39-0.39c1.93-0.82,3.87-1.62,5.79-2.46
			c0.56-0.24,1-0.23,1.54,0.11C252.73,279.62,254.47,280.63,256.42,281.8z"/>
		<path class="st8" d="M265.66,283.46c0.07-0.24,0.2-0.3,0.34-0.34c2-0.62,3.98-1.31,6.05-1.64c0.32-0.05,0.63-0.18,0.96,0.01
			c1.87,1.08,3.74,2.16,5.57,3.22c0.02,0.33-0.19,0.37-0.34,0.43c-1.71,0.75-3.43,1.5-5.15,2.25c-0.34,0.15-0.63,0.3-1.02,0.05
			C269.93,286.1,267.78,284.78,265.66,283.46z"/>
		<path class="st8" d="M246.56,276.05c-0.27,0.29-0.67,0.38-1.03,0.53c-1.72,0.73-3.46,1.43-5.18,2.17c-0.33,0.14-0.6,0.2-0.92-0.02
			c-1.82-1.23-3.64-2.44-5.46-3.66c0.09-0.38,0.4-0.35,0.62-0.42c1.92-0.64,3.84-1.26,5.75-1.91c0.48-0.16,0.89-0.18,1.35,0.12
			c1.52,0.97,3.06,1.89,4.59,2.83C246.41,275.77,246.54,275.84,246.56,276.05z"/>
		<path class="st8" d="M190.36,232.61c-0.68,0.15-1.38,0.3-2.09,0.45c-1,0.22-2.01,0.43-3.01,0.66c-0.52,0.12-1.04,0.15-1.5-0.12
			c-2.13-1.28-4.24-2.58-6.38-3.89c0.27-0.38,0.63-0.34,0.94-0.4c1.55-0.29,3.11-0.56,4.65-0.86c0.32-0.06,0.57,0,0.83,0.15
			c2.1,1.2,4.21,2.4,6.31,3.6C190.24,232.27,190.37,232.35,190.36,232.61z"/>
		<path class="st8" d="M198.16,229.06c-1.26,0.48-2.52,0.96-3.78,1.44c-0.25,0.1-0.49,0.09-0.74-0.05
			c-2.03-1.16-4.07-2.31-6.11-3.46c0.17-0.38,0.5-0.37,0.77-0.45c0.84-0.27,1.7-0.47,2.51-0.8c0.78-0.32,1.42-0.25,2.15,0.19
			c1.5,0.91,3.06,1.73,4.6,2.59C197.78,228.63,198.05,228.68,198.16,229.06z"/>
		<path class="st8" d="M179.14,225.78c-2.08,0.44-3.87,0.83-5.66,1.21c-0.23,0.05-0.44,0.04-0.64-0.08
			c-1.46-0.89-2.91-1.79-4.51-2.77c1.31-0.39,2.48-0.55,3.63-0.74c0.94-0.16,1.91-0.64,2.8-0.39c0.84,0.23,1.56,0.94,2.33,1.43
			C177.71,224.84,178.32,225.24,179.14,225.78z"/>
		<path class="st8" d="M187.74,223.27c-1.39,0.43-2.61,0.81-3.83,1.18c-0.29,0.09-0.58,0.08-0.85-0.09
			c-1.15-0.71-2.31-1.4-3.58-2.34C182.44,221.46,185.12,221.31,187.74,223.27z"/>
		<path class="st4" d="M215.45,195.41c0.31-1.01,1.01-1.63,2.04-1.94c1.87-0.55,3.74-1.11,5.6-1.67
			c20.63-6.11,41.26-12.22,61.89-18.33c20.56-6.09,41.12-12.18,61.67-18.27c0.49-0.15,0.98-0.31,1.5-0.32
			c1.2-0.02,2.23,0.73,2.57,1.87c0.34,1.14-0.13,2.33-1.15,2.96c-0.41,0.26-0.88,0.38-1.33,0.51c-11.11,3.29-22.21,6.59-33.32,9.88
			c-27.26,8.08-54.52,16.15-81.77,24.22c-4.44,1.32-8.88,2.64-13.33,3.95c-0.56,0.17-1.12,0.37-1.72,0.39
			C216.37,198.75,215.02,197.12,215.45,195.41z"/>
		<path class="st19" d="M289.96,190.55c0.25-1.04,0.94-1.64,1.92-1.94c1.48-0.45,2.96-0.89,4.44-1.32
			c17.24-5.11,34.48-10.22,51.71-15.33c0.46-0.14,0.92-0.29,1.39-0.35c1.34-0.19,2.54,0.59,2.9,1.84c0.37,1.27-0.21,2.53-1.45,3.11
			c-0.3,0.14-0.62,0.23-0.94,0.33c-18.65,5.53-37.29,11.06-55.94,16.58c-0.46,0.14-0.91,0.29-1.4,0.31
			C290.84,193.84,289.54,192.25,289.96,190.55z"/>
		<path class="st4" d="M334.83,202.07c0.19-0.78,0.65-1.38,1.38-1.74c0.43-0.21,0.88-0.37,1.33-0.52
			c15.42-5.01,30.84-10.01,46.26-15.02c0.31-0.1,0.63-0.21,0.96-0.26c1.38-0.23,2.62,0.55,3,1.84c0.36,1.25-0.23,2.52-1.47,3.11
			c-0.33,0.16-0.69,0.26-1.03,0.38c-14.4,4.69-28.8,9.37-43.21,14.06c-1.26,0.41-2.51,0.84-3.78,1.22c-1.11,0.34-2.12,0.12-2.9-0.79
			C334.81,203.7,334.64,202.93,334.83,202.07z"/>
		<path class="st4" d="M239.61,207.05c0.22-0.84,0.73-1.44,1.53-1.77c0.58-0.23,1.18-0.41,1.78-0.59
			c11.51-3.61,23.03-7.21,34.54-10.81c0.39-0.12,0.77-0.25,1.17-0.32c1.33-0.23,2.55,0.49,2.96,1.73c0.43,1.3-0.15,2.61-1.43,3.21
			c-0.33,0.15-0.69,0.26-1.04,0.37c-11.83,3.7-23.66,7.41-35.49,11.11c-0.53,0.16-1.05,0.33-1.62,0.31
			C240.36,210.2,239.2,208.66,239.61,207.05z"/>
		<path class="st19" d="M328.17,238.13c-0.31,1.21-0.89,1.84-1.79,2.15c-0.69,0.24-1.4,0.45-2.1,0.67
			c-10.16,3.1-20.31,6.2-30.47,9.3c-0.39,0.12-0.78,0.24-1.17,0.3c-1.29,0.19-2.46-0.54-2.86-1.73c-0.42-1.24,0.12-2.56,1.31-3.17
			c0.32-0.17,0.68-0.27,1.03-0.38c10.61-3.24,21.23-6.48,31.84-9.72c0.53-0.16,1.04-0.35,1.61-0.34
			C327.28,235.2,328.51,236.76,328.17,238.13z"/>
		<path class="st19" d="M258.4,156.98c0.29-0.93,0.93-1.59,1.93-1.86c1.52-0.42,3.05-0.82,4.58-1.23
			c7.85-2.08,15.69-4.16,23.54-6.23c0.43-0.11,0.85-0.23,1.29-0.28c1.29-0.14,2.43,0.63,2.78,1.84c0.37,1.27-0.2,2.55-1.43,3.11
			c-0.33,0.15-0.69,0.24-1.05,0.34c-9.23,2.45-18.46,4.9-27.69,7.34c-0.5,0.13-0.99,0.27-1.51,0.25
			C259.18,160.2,257.99,158.63,258.4,156.98z"/>
	</g>
</g>
<g id="DESIGNED_BY_FREEPIK" class="st0">
	<g class="st1">
		<g id="XMLID_1_">
			<g id="XMLID_20_">
				<path id="XMLID_28_" class="st20" d="M260.1,465.47c-0.43,0.44-0.8,0.93-1.11,1.45l-0.47-0.24c-0.07-0.3-0.35-0.5-0.66-0.47
					c-0.33,0.04-0.57,0.34-0.53,0.67c0.04,0.33,0.34,0.57,0.67,0.53c0.07-0.01,0.13-0.03,0.18-0.05l0.45,0.23
					c-0.25,0.55-0.43,1.14-0.54,1.74l0.75,0.13c0.23-1.31,0.85-2.51,1.79-3.47L260.1,465.47z"/>
				<path id="XMLID_27_" class="st20" d="M265.59,463.16c-0.17,0-0.34,0.01-0.51,0.02l-0.07-0.63c0.19-0.15,0.3-0.39,0.27-0.64
					c-0.05-0.39-0.4-0.67-0.8-0.63c-0.39,0.05-0.67,0.4-0.63,0.8c0.03,0.25,0.19,0.46,0.4,0.56l0.07,0.62
					c-0.71,0.12-1.4,0.33-2.06,0.65l0.33,0.68c0.93-0.45,1.94-0.67,3-0.67c0.5,0,0.99,0.05,1.48,0.16l0.16-0.74
					C266.69,463.22,266.14,463.16,265.59,463.16z"/>
				<path id="XMLID_26_" class="st20" d="M272.19,465.71c0.33-0.04,0.57-0.34,0.53-0.67c-0.04-0.33-0.34-0.57-0.67-0.53
					c-0.31,0.04-0.54,0.3-0.53,0.61l-0.42,0.36c-0.42-0.43-0.89-0.81-1.41-1.14l-0.4,0.64c1.13,0.71,2.02,1.73,2.56,2.93l0.69-0.31
					c-0.25-0.55-0.57-1.07-0.94-1.55l0.4-0.35C272.06,465.72,272.13,465.72,272.19,465.71z"/>
				<path id="XMLID_25_" class="st20" d="M265.04,473.37c-0.39,0.02-0.77,0.03-1.16,0.03c-0.88,0-1.73-0.06-2.48-0.18
					c-0.39-0.06-0.85-0.15-1.27-0.29c1.05,1.86,3.07,3.12,5.39,3.12c2.86,0,5.26-1.92,5.95-4.5c-0.68,0.45-1.51,0.83-2.46,1.12
					C267.84,473.05,266.46,473.29,265.04,473.37z"/>
				<path id="XMLID_21_" class="st20" d="M265.59,464.68c-3.35,0-6.08,2.67-6.08,5.94c0,0.43,0.05,0.85,0.14,1.26
					c0.67,0.48,2.71,0.89,5.35,0.73c2.88-0.17,5.3-0.96,6.67-2.16c-0.01-0.19-0.02-0.39-0.05-0.58
					C271.24,466.91,268.65,464.68,265.59,464.68z M263.43,471.19c-1.02,0-1.85-0.83-1.85-1.85c0-1.02,0.83-1.85,1.85-1.85
					c1.02,0,1.85,0.83,1.85,1.85C265.28,470.36,264.45,471.19,263.43,471.19z M268.17,470.29c-0.75,0-1.36-0.61-1.36-1.36
					s0.61-1.36,1.36-1.36c0.75,0,1.36,0.61,1.36,1.36S268.92,470.29,268.17,470.29z"/>
			</g>
			<path id="XMLID_18_" class="st20" d="M281.6,466.55c-0.29-0.12-0.81-0.31-1.38-0.24c-0.55,0.07-0.84,0.34-0.84,1.01v0.87h2.23
				v1.72h-2.23v5.45h-1.93v-5.45h-1.34v-1.72h1.34v-0.89c0-1.68,0.9-2.78,2.57-2.78c0.64,0,1.16,0.12,1.59,0.31L281.6,466.55z"/>
			<path id="XMLID_16_" class="st20" d="M286.3,469.88c-0.18-0.03-0.36-0.05-0.53-0.05c-0.9,0-1.51,0.55-1.51,1.61v3.91h-1.93v-7.17
				h1.87v0.78c0.45-0.67,1.14-0.98,2.02-0.98c0.41,0,0.85,0.13,1.09,0.34L286.3,469.88z"/>
			<path id="XMLID_13_" class="st20" d="M293.97,471.76c0,0.22-0.01,0.49-0.04,0.65h-5.08c0.21,1.04,0.93,1.49,1.84,1.49
				c0.62,0,1.3-0.25,1.81-0.69l1.13,1.24c-0.81,0.75-1.85,1.09-3.06,1.09c-2.2,0-3.72-1.5-3.72-3.75c0-2.26,1.48-3.8,3.63-3.8
				C292.54,467.99,293.96,469.52,293.97,471.76z M288.85,471.09h3.18c-0.18-0.92-0.73-1.44-1.56-1.44
				C289.55,469.65,289.02,470.2,288.85,471.09z"/>
			<path id="XMLID_10_" class="st20" d="M301.62,471.76c0,0.22-0.01,0.49-0.04,0.65h-5.08c0.21,1.04,0.93,1.49,1.84,1.49
				c0.62,0,1.3-0.25,1.81-0.69l1.13,1.24c-0.81,0.75-1.85,1.09-3.06,1.09c-2.2,0-3.72-1.5-3.72-3.75c0-2.26,1.48-3.8,3.63-3.8
				C300.2,467.99,301.61,469.52,301.62,471.76z M296.5,471.09h3.18c-0.18-0.92-0.73-1.44-1.56-1.44
				C297.21,469.65,296.67,470.2,296.5,471.09z"/>
			<path id="XMLID_7_" class="st20" d="M309.96,471.76c0,2.15-1.49,3.77-3.47,3.77c-0.96,0-1.64-0.38-2.11-0.93v3.71h-1.92v-10.13
				h1.89v0.79c0.47-0.58,1.15-0.98,2.14-0.98C308.47,467.99,309.96,469.61,309.96,471.76z M304.29,471.76
				c0,1.13,0.75,1.98,1.84,1.98c1.14,0,1.85-0.88,1.85-1.98c0-1.1-0.71-1.98-1.85-1.98C305.03,469.79,304.29,470.63,304.29,471.76z"
				/>
			<path id="XMLID_4_" class="st20" d="M313.07,465.84c0,0.7-0.54,1.23-1.24,1.23c-0.7,0-1.23-0.53-1.23-1.23
				c0-0.7,0.53-1.24,1.23-1.24C312.53,464.59,313.07,465.14,313.07,465.84z M312.81,475.35h-1.93v-7.17h1.93V475.35z"/>
			<path id="XMLID_2_" class="st20" d="M316.03,470.74l2.7-2.55h2.37l-3.48,3.38l3.5,3.8h-2.38l-2.72-2.9v2.9h-1.93V464.7h1.93
				V470.74z"/>
		</g>
		<g>
			<path class="st20" d="M184.41,475.29v-1.05c-0.53,0.72-1.39,1.23-2.39,1.23c-1.85,0-3.15-1.41-3.15-3.71
				c0-2.26,1.29-3.72,3.15-3.72c0.95,0,1.82,0.47,2.39,1.25v-3.76h1.1v9.77H184.41z M184.41,473.37v-3.21
				c-0.4-0.62-1.24-1.14-2.12-1.14c-1.42,0-2.27,1.17-2.27,2.74c0,1.57,0.85,2.72,2.27,2.72
				C183.17,474.48,184.02,473.99,184.41,473.37z"/>
			<path class="st20" d="M186.93,471.74c0-2.05,1.46-3.71,3.49-3.71c2.14,0,3.4,1.67,3.4,3.79v0.28h-5.73
				c0.09,1.33,1.03,2.45,2.55,2.45c0.81,0,1.63-0.32,2.18-0.89l0.53,0.72c-0.7,0.7-1.65,1.08-2.81,1.08
				C188.44,475.46,186.93,473.96,186.93,471.74z M190.4,468.95c-1.51,0-2.26,1.27-2.31,2.36h4.64
				C192.72,470.25,192.01,468.95,190.4,468.95z"/>
			<path class="st20" d="M194.61,474.35l0.57-0.79c0.47,0.54,1.36,1.01,2.33,1.01c1.08,0,1.67-0.51,1.67-1.22
				c0-1.71-4.38-0.66-4.38-3.28c0-1.1,0.95-2.04,2.64-2.04c1.2,0,2.05,0.45,2.62,1.03l-0.51,0.76c-0.42-0.51-1.2-0.89-2.11-0.89
				c-0.97,0-1.57,0.48-1.57,1.11c0,1.55,4.38,0.53,4.38,3.28c0,1.19-0.95,2.14-2.78,2.14C196.31,475.46,195.32,475.11,194.61,474.35
				z"/>
			<path class="st20" d="M201.48,466.47c0-0.41,0.34-0.75,0.73-0.75c0.41,0,0.75,0.34,0.75,0.75c0,0.41-0.34,0.73-0.75,0.73
				C201.81,467.2,201.48,466.88,201.48,466.47z M201.67,475.29v-7.07h1.1v7.07H201.67z"/>
			<path class="st20" d="M204.58,477.11l0.56-0.82c0.59,0.7,1.29,0.97,2.3,0.97c1.17,0,2.27-0.57,2.27-2.12v-1.01
				c-0.51,0.72-1.38,1.26-2.37,1.26c-1.85,0-3.15-1.38-3.15-3.66c0-2.27,1.29-3.68,3.15-3.68c0.95,0,1.8,0.47,2.37,1.25v-1.07h1.1
				v6.87c0,2.34-1.64,3.08-3.37,3.08C206.24,478.16,205.42,477.93,204.58,477.11z M209.71,473.25v-3.09
				c-0.38-0.62-1.23-1.14-2.11-1.14c-1.42,0-2.27,1.13-2.27,2.7c0,1.55,0.85,2.7,2.27,2.7
				C208.48,474.41,209.33,473.87,209.71,473.25z"/>
			<path class="st20" d="M217.41,475.29v-4.63c0-1.24-0.63-1.64-1.58-1.64c-0.86,0-1.68,0.53-2.09,1.1v5.17h-1.1v-7.07h1.1v1.03
				c0.5-0.59,1.46-1.2,2.52-1.2c1.48,0,2.26,0.75,2.26,2.29v4.97H217.41z"/>
			<path class="st20" d="M219.93,471.74c0-2.05,1.46-3.71,3.49-3.71c2.14,0,3.4,1.67,3.4,3.79v0.28h-5.73
				c0.09,1.33,1.03,2.45,2.55,2.45c0.81,0,1.63-0.32,2.18-0.89l0.53,0.72c-0.7,0.7-1.66,1.08-2.81,1.08
				C221.44,475.46,219.93,473.96,219.93,471.74z M223.4,468.95c-1.51,0-2.26,1.27-2.31,2.36h4.64
				C225.72,470.25,225.02,468.95,223.4,468.95z"/>
			<path class="st20" d="M233.35,475.29v-1.05c-0.53,0.72-1.39,1.23-2.39,1.23c-1.85,0-3.15-1.41-3.15-3.71
				c0-2.26,1.29-3.72,3.15-3.72c0.95,0,1.82,0.47,2.39,1.25v-3.76h1.1v9.77H233.35z M233.35,473.37v-3.21
				c-0.4-0.62-1.25-1.14-2.12-1.14c-1.42,0-2.27,1.17-2.27,2.74c0,1.57,0.85,2.72,2.27,2.72
				C232.1,474.48,232.95,473.99,233.35,473.37z"/>
			<path class="st20" d="M239.69,475.29v-9.77h1.1v3.76c0.57-0.78,1.42-1.25,2.39-1.25c1.85,0,3.15,1.46,3.15,3.72
				c0,2.3-1.3,3.71-3.15,3.71c-1,0-1.86-0.51-2.39-1.23v1.05H239.69z M242.9,474.48c1.44,0,2.29-1.16,2.29-2.72
				c0-1.57-0.85-2.74-2.29-2.74c-0.86,0-1.73,0.53-2.11,1.14v3.21C241.17,473.99,242.04,474.48,242.9,474.48z"/>
			<path class="st20" d="M247.53,477.06c0.16,0.07,0.43,0.12,0.6,0.12c0.48,0,0.81-0.16,1.05-0.75l0.47-1.07l-2.96-7.15h1.19
				l2.36,5.8l2.34-5.8h1.2l-3.54,8.51c-0.42,1.03-1.14,1.42-2.08,1.44c-0.23,0-0.6-0.04-0.81-0.1L247.53,477.06z"/>
		</g>
	</g>
</g>
</svg>
